<?xml version="1.0" standalone="no"?>
<!DOCTYPE svg PUBLIC "-//W3C//DTD SVG 1.1//EN" "http://www.w3.org/Graphics/SVG/1.1/DTD/svg11.dtd" >
<svg xmlns="http://www.w3.org/2000/svg" xmlns:xlink="http://www.w3.org/1999/xlink" version="1.1">
<metadata>
Created by FontForge 20170731 at Mon Apr 11 07:31:31 2022
 By Aleksey,,,
(c) 2011, Copyright by Lineto. All rights reserved.
</metadata>
<defs>
<font id="BrownStd-Light" horiz-adv-x="1167" >
  <font-face 
    font-family="BrownStd Light"
    font-weight="300"
    font-stretch="normal"
    units-per-em="2048"
    panose-1="0 1 4 0 1 1 1 1 1 1"
    ascent="1536"
    descent="-512"
    x-height="934"
    cap-height="1434"
    bbox="-184 -512 2724 1864"
    underline-thickness="163"
    underline-position="-367"
    unicode-range="U+000D-FB04"
  />
<missing-glyph horiz-adv-x="1085" 
d="M154 0v1434h778v-1434h-778zM270 1323v-1212h545v1212h-545z" />
    <glyph glyph-name="f_f_l" unicode="ffl" horiz-adv-x="1837" 
d="M1546 823h-512v-823h-116v823h-539v-823h-117v823h-242v111h242v141q0 191 78 285q95 115 266 115q37 0 90 -11l-22 -108q-31 8 -70 8q-121 0 -182 -88q-22 -32 -32.5 -74.5t-10.5 -120.5v-147h539v141q0 192 77 285q47 56 116.5 85.5t150.5 29.5q37 0 90 -11l-23 -108
q-31 8 -69 8q-122 0 -183 -88q-22 -32 -32.5 -74.5t-10.5 -120.5v-147h512v520h117v-1454h-117v823z" />
    <glyph glyph-name="f_f" unicode="ff" horiz-adv-x="1413" 
d="M1372 1464l-22 -108q-31 8 -70 8q-121 0 -182 -88q-22 -32 -32.5 -74.5t-10.5 -120.5v-147h317v-111h-317v-823h-117v823h-559v-823h-117v823h-242v111h242v141q0 191 78 285q95 115 266 115q37 0 90 -11l-22 -108q-31 8 -70 8q-121 0 -182 -88q-22 -32 -32.5 -74.5
t-10.5 -120.5v-147h559v141q0 191 78 285q95 115 266 115q37 0 90 -11z" />
    <glyph glyph-name="f_f_i" unicode="ffi" horiz-adv-x="1837" 
d="M1546 823h-512v-823h-116v823h-539v-823h-117v823h-242v111h242v141q0 191 78 285q95 115 266 115q37 0 90 -11l-22 -108q-31 8 -70 8q-121 0 -182 -88q-22 -32 -32.5 -74.5t-10.5 -120.5v-147h539v141q0 192 77 285q47 56 116.5 85.5t150.5 29.5q37 0 90 -11l-23 -108
q-31 8 -69 8q-122 0 -183 -88q-22 -32 -32.5 -74.5t-10.5 -120.5v-147h629v-934h-117v823zM1501 1257q0 43 30 74t73 31t73.5 -31t30.5 -74t-30.5 -72.5t-73.5 -29.5t-73 29.5t-30 72.5z" />
    <glyph glyph-name="f_i" unicode="fi" horiz-adv-x="1181" 
d="M696 1464l-22 -108q-31 8 -70 8q-121 0 -182 -88q-22 -32 -32.5 -74.5t-10.5 -120.5v-147h629v-934h-117v823h-512v-823h-117v823h-242v111h242v141q0 191 78 285q95 115 266 115q37 0 90 -11zM846 1257q0 43 30 74t72 31q43 0 74 -31t31 -74q0 -42 -31 -72t-74 -30
t-72.5 29.5t-29.5 72.5z" />
    <glyph glyph-name="f_l" unicode="fl" horiz-adv-x="1181" 
d="M891 0v823h-512v-823h-117v823h-242v111h242v141q0 191 78 285q95 115 266 115q37 0 90 -11l-22 -108q-31 8 -70 8q-121 0 -182 -88q-22 -32 -32.5 -74.5t-10.5 -120.5v-147h512v520h117v-1454h-117z" />
    <glyph glyph-name=".notdef" horiz-adv-x="1085" 
d="M154 0v1434h778v-1434h-778zM270 1323v-1212h545v1212h-545z" />
    <glyph glyph-name=".null" horiz-adv-x="0" 
 />
    <glyph glyph-name=".null" horiz-adv-x="0" 
 />
    <glyph glyph-name="uni000D" unicode="&#xd;" horiz-adv-x="552" 
 />
    <glyph glyph-name="space" unicode=" " horiz-adv-x="552" 
 />
    <glyph glyph-name="exclam" unicode="!" horiz-adv-x="491" 
d="M209 430l-21 504v500h117v-500l-20 -504h-76zM139 86q0 44 31.5 75.5t75.5 31.5t75 -31.5t31 -75.5t-31 -75t-75 -31t-75.5 31t-31.5 75z" />
    <glyph glyph-name="quotedbl" unicode="&#x22;" horiz-adv-x="839" 
d="M184 913l-20 521h117l-21 -521h-76zM580 913l-21 521h117l-21 -521h-75z" />
    <glyph glyph-name="numbersign" unicode="#" horiz-adv-x="1290" 
d="M1128 1434l-122 -451h202v-111h-231l-82 -311h203v-110h-234l-121 -451h-116l123 451h-349l-122 -451h-117l123 451h-203v110h231l82 311h-202v111h233l121 451h117l-121 -451h348l121 451h116zM512 872l-82 -311h348l82 311h-348z" />
    <glyph glyph-name="dollar" unicode="$" horiz-adv-x="1056" 
d="M72 221l90 80q73 -95 164 -150t221 -55q114 0 204.5 75t90.5 194q0 62 -24.5 112.5t-62 82.5t-93.5 62.5t-108.5 51.5t-117.5 50.5t-110 57.5q-92 57 -143.5 126t-51.5 169q0 149 95 250.5t245 122.5v219h117v-217q172 -15 317 -141l-78 -90q-67 59 -133 87.5t-151 28.5
q-123 0 -206 -70t-83 -184q0 -52 23 -94.5t59 -70t89 -55t103 -47.5t112.5 -48.5t107.5 -56.5q217 -135 217 -346q0 -158 -107 -263.5t-270 -119.5v-218h-117v220q-242 28 -399 237z" />
    <glyph glyph-name="percent" unicode="%" horiz-adv-x="1822" 
d="M727 1087q0 110 -72 187.5t-178 77.5q-103 0 -174.5 -77.5t-71.5 -187.5q0 -109 71 -186.5t175 -77.5q106 0 178 77t72 187zM123 1087q0 154 102 260.5t254 106.5t254.5 -106.5t102.5 -260.5t-102 -260t-255 -106q-152 0 -254 106t-102 260zM1591 346q0 110 -72 187
t-178 77q-103 0 -174 -77t-71 -187t71 -187t174 -77q106 0 178 77t72 187zM987 346q0 154 102 260.5t254 106.5t254.5 -106.5t102.5 -260.5t-102 -260t-255 -106q-152 0 -254 106t-102 260zM547 0h-107l836 1434h106z" />
    <glyph glyph-name="ampersand" unicode="&#x26;" horiz-adv-x="1302" 
d="M1075 274l289 -274h-162l-190 182q-170 -202 -459 -202q-139 0 -256 55t-186.5 155t-69.5 222q0 252 281 428q-170 167 -170 323q0 120 82.5 205.5t216.5 85.5t216.5 -85.5t82.5 -205.5q0 -74 -37.5 -140.5t-87.5 -111t-121 -88.5l485 -465q53 115 53 242q0 101 -30 242
l114 26q33 -136 33 -268q0 -176 -84 -326zM158 412q0 -132 112.5 -227t282.5 -95q242 0 375 170l-520 500q-125 -79 -187.5 -162t-62.5 -186zM633 1163q0 79 -52.5 129.5t-129.5 50.5q-78 0 -130.5 -50.5t-52.5 -129.5q0 -114 131 -239l23 -23q48 32 78.5 56t64.5 57.5
t51 71t17 77.5z" />
    <glyph glyph-name="quotesingle" unicode="'" horiz-adv-x="444" 
d="M184 913l-20 521h117l-21 -521h-76z" />
    <glyph glyph-name="parenleft" unicode="(" horiz-adv-x="870" 
d="M444 512q0 -483 283 -874l-94 -68q-147 201 -226 441.5t-79 500.5t79 500.5t226 441.5l94 -68q-283 -391 -283 -874z" />
    <glyph glyph-name="parenright" unicode=")" horiz-adv-x="870" 
d="M426 512q0 483 -283 874l95 68q147 -201 226 -441.5t79 -500.5t-79 -500.5t-226 -441.5l-95 68q283 391 283 874z" />
    <glyph glyph-name="asterisk" unicode="*" horiz-adv-x="1011" 
d="M928 1090l-344 -109l211 -291l-82 -59l-209 289l-211 -289l-82 59l209 287l-338 113l31 96l340 -111v359h102v-359l340 111z" />
    <glyph glyph-name="plus" unicode="+" horiz-adv-x="1085" 
d="M973 469h-375v-375h-111v375h-374v111h374v374h111v-374h375v-111z" />
    <glyph glyph-name="comma" unicode="," horiz-adv-x="622" 
d="M115 -287l145 492h154l-197 -492h-102z" />
    <glyph glyph-name="hyphen" unicode="-" horiz-adv-x="860" 
d="M164 561h532v-100h-532v100z" />
    <glyph glyph-name="period" unicode="." horiz-adv-x="622" 
d="M225 86q0 44 31.5 75.5t75.5 31.5t75 -31.5t31 -75.5t-31 -75t-75 -31t-75.5 31t-31.5 75z" />
    <glyph glyph-name="slash" unicode="/" horiz-adv-x="808" 
d="M129 0h-119l670 1434h119z" />
    <glyph glyph-name="zero" unicode="0" horiz-adv-x="1208" 
d="M246 717q0 -138 19 -247.5t60 -195t111.5 -132t167.5 -46.5t168 46.5t112 132t60 195t19 247.5t-19 247t-60 194.5t-112 132t-168 46.5t-167.5 -46t-111.5 -132t-60 -195t-19 -247zM123 717q0 131 16 240t52 202.5t91 157.5t137 100.5t185 36.5t185 -36.5t137 -100.5
t91 -157.5t52 -202.5t16 -240t-16 -240t-52 -202.5t-91 -157.5t-137 -100.5t-185 -36.5t-185 36.5t-137 100.5t-91 157.5t-52 202.5t-16 240z" />
    <glyph glyph-name="one" unicode="1" horiz-adv-x="768" 
d="M113 1118v123l317 193h82v-1434h-123v1272z" />
    <glyph glyph-name="two" unicode="2" horiz-adv-x="1064" 
d="M203 1087l-111 39q32 142 140 235t260 93q179 0 294 -114.5t115 -288.5q0 -95 -39 -182t-129 -195l-461 -557h650v-117h-840v76l549 659q83 98 115 171t32 141q0 126 -79.5 208t-202.5 82q-113 0 -189.5 -67.5t-103.5 -182.5z" />
    <glyph glyph-name="three" unicode="3" horiz-adv-x="1122" 
d="M82 205l98 63q51 -80 136.5 -126t195.5 -46q157 0 255.5 107t98.5 258q0 156 -109 260t-272 104q-85 0 -145 -20v76l379 436h-569v117h757v-76l-364 -422q127 -9 229.5 -74t159.5 -170.5t57 -230.5q0 -129 -59.5 -238.5t-169.5 -176t-248 -66.5q-140 0 -252.5 59.5
t-177.5 165.5z" />
    <glyph glyph-name="four" unicode="4" 
d="M758 0v369h-727v75l768 990h82v-949h235v-116h-235v-369h-123zM213 485h545v703z" />
    <glyph glyph-name="five" unicode="5" horiz-adv-x="1116" 
d="M258 1434h676v-117h-574l-59 -422q96 47 201 47q134 0 244.5 -64.5t173.5 -175t63 -241.5q0 -199 -138 -340t-339 -141q-124 0 -231.5 56.5t-172.5 153.5l97 66q51 -73 131 -116.5t174 -43.5q154 0 255 107t101 258q0 152 -105 258t-259 106q-142 0 -254 -100l-82 12z
" />
    <glyph glyph-name="six" unicode="6" horiz-adv-x="1177" 
d="M793 1434l-344 -531q71 23 147 23q134 0 242 -64t167.5 -172t59.5 -237q0 -201 -136.5 -337t-340.5 -136q-133 1 -242.5 63.5t-171 168.5t-61.5 232q0 155 100 310l440 680h140zM588 809q-151 0 -264 -102q-27 -43 -42 -71t-30.5 -80t-15.5 -103q0 -151 101 -254
t255 -103q149 0 249.5 103t100.5 254q0 153 -100 254.5t-254 101.5z" />
    <glyph glyph-name="seven" unicode="7" horiz-adv-x="1064" 
d="M102 1317v117h881v-76l-649 -1358h-129l631 1317h-734z" />
    <glyph glyph-name="eight" unicode="8" 
d="M584 -20q-203 0 -337 123.5t-134 312.5q0 126 66.5 229.5t180.5 159.5q-73 48 -114 123.5t-41 165.5q0 151 108 255.5t271 104.5t271 -104.5t108 -255.5q0 -90 -41.5 -165.5t-114.5 -123.5q115 -56 181.5 -160t66.5 -229q0 -189 -134 -312.5t-337 -123.5zM584 1337
q-111 0 -183.5 -70t-72.5 -173q0 -101 71.5 -170t184.5 -72q113 3 184.5 72t71.5 170q0 103 -72.5 173t-183.5 70zM584 96q151 0 249.5 93t98.5 227t-98 226.5t-250 92.5t-250 -92.5t-98 -226.5t98.5 -227t249.5 -93z" />
    <glyph glyph-name="nine" unicode="9" horiz-adv-x="1177" 
d="M385 0l344 530q-68 -22 -147 -22q-134 0 -242 64t-167.5 172t-59.5 237q0 201 136.5 337t340.5 136q133 -1 242.5 -64t171 -169t61.5 -232q0 -154 -100 -309l-441 -680h-139zM590 625q151 0 264 102q27 43 42 71t30.5 80t15.5 103q0 151 -101 253.5t-255 102.5
q-149 0 -249.5 -102.5t-100.5 -253.5q0 -153 100 -254.5t254 -101.5z" />
    <glyph glyph-name="colon" unicode=":" horiz-adv-x="622" 
d="M225 86q0 44 31.5 75.5t75.5 31.5t75 -31.5t31 -75.5t-31 -75t-75 -31t-75.5 31t-31.5 75zM225 848q0 44 31.5 75t75.5 31t75 -31t31 -75t-31 -75.5t-75 -31.5t-75.5 31.5t-31.5 75.5z" />
    <glyph glyph-name="semicolon" unicode=";" horiz-adv-x="622" 
d="M115 -287l145 492h154l-197 -492h-102zM225 848q0 44 31.5 75t75.5 31t75 -31t31 -75t-31 -75.5t-75 -31.5t-75.5 31.5t-31.5 75.5z" />
    <glyph glyph-name="less" unicode="&#x3c;" horiz-adv-x="1085" 
d="M973 252v-119l-860 356v70l860 356v-118l-662 -273z" />
    <glyph glyph-name="equal" unicode="=" horiz-adv-x="1085" 
d="M973 649h-860v111h860v-111zM973 289h-860v110h860v-110z" />
    <glyph glyph-name="greater" unicode="&#x3e;" horiz-adv-x="1085" 
d="M113 133v119l661 272l-661 273v118l860 -356v-70z" />
    <glyph glyph-name="question" unicode="?" horiz-adv-x="1024" 
d="M254 1145l-111 33q31 121 141.5 198.5t258.5 77.5q175 0 292 -107.5t117 -261.5q0 -114 -55 -194t-145 -146q-29 -21 -75 -51t-71.5 -47t-46 -41t-20.5 -47q0 -43 69 -108l-86 -82q-56 56 -78 96.5t-22 93.5q0 40 15.5 73t46.5 61t60 48t74 48.5t72 48.5q146 110 146 247
q0 109 -83 183.5t-210 74.5q-109 0 -189 -55.5t-100 -142.5zM426 86q0 44 31 75.5t75 31.5t75.5 -31.5t31.5 -75.5t-31.5 -75t-75.5 -31t-75 31t-31 75z" />
    <glyph glyph-name="at" unicode="@" horiz-adv-x="2048" 
d="M1278 352v320q-35 73 -106 121.5t-166 48.5q-134 0 -228 -94.5t-94 -235.5q0 -139 93.5 -234.5t228.5 -95.5q96 0 166 48.5t106 121.5zM1303 213q-45 -64 -121.5 -102.5t-175.5 -38.5q-160 0 -281 96q-75 60 -116.5 150t-41.5 194t41.5 194t116.5 150q121 96 281 96
q76 0 149.5 -30t122.5 -88v98h117v-561q0 -189 159 -189q114 0 174 104.5t60 272.5q0 170 -60 311t-163.5 235t-243 146t-297.5 52q-155 0 -296.5 -63t-244 -169t-163 -252t-60.5 -307q0 -163 62 -309.5t167 -252t249 -167.5t302 -62q247 0 453 158l63 -96
q-107 -83 -240 -127.5t-278 -44.5q-183 0 -348.5 71.5t-285.5 192t-190.5 287t-70.5 350.5t70.5 350.5t190.5 287t285.5 192t348.5 71.5q179 0 337.5 -62t275.5 -171.5t185.5 -270.5t68.5 -350q0 -134 -39.5 -243t-121 -176.5t-192.5 -67.5q-81 0 -148.5 35t-100.5 106z" />
    <glyph glyph-name="A" unicode="A" horiz-adv-x="1339" 
d="M629 1434h82l618 -1434h-123l-188 432h-696l-189 -432h-123zM670 1241l-299 -692h596z" />
    <glyph glyph-name="B" unicode="B" horiz-adv-x="1239" 
d="M1044 1083q0 -80 -34.5 -151t-94.5 -119q112 -52 182 -157t70 -232q0 -187 -141 -315q-122 -109 -326 -109h-516v1434h469q177 0 281 -97q110 -102 110 -254zM694 733h-387v-616h387q167 0 256 86q94 91 94 221t-94 221q-91 88 -256 88zM307 850h340q140 0 213 76
q62 65 62 157q0 93 -62 158q-73 76 -213 76h-340v-467z" />
    <glyph glyph-name="C" unicode="C" horiz-adv-x="1402" 
d="M1274 322l88 -78q-94 -120 -242 -192t-311 -72q-211 0 -379.5 95.5t-263 263.5t-94.5 378q0 205 92.5 373.5t258 266t368.5 97.5q153 0 289.5 -58t230.5 -161l-84 -84q-77 86 -191.5 136t-244.5 50q-169 0 -306 -83t-213.5 -225t-76.5 -312q0 -173 77 -314.5t216.5 -224
t314.5 -82.5q144 0 268.5 62t202.5 164z" />
    <glyph glyph-name="D" unicode="D" horiz-adv-x="1443" 
d="M1249 717q0 144 -59.5 269.5t-165.5 209.5q-154 121 -436 121h-281v-1200h281q282 0 436 121q106 84 165.5 209.5t59.5 269.5zM1372 717q0 -177 -76 -330t-209 -252q-184 -135 -493 -135h-410v1434h410q308 0 493 -136q133 -99 209 -251.5t76 -329.5z" />
    <glyph glyph-name="E" unicode="E" horiz-adv-x="1064" 
d="M963 1317h-656v-467h512v-117h-512v-616h676v-117h-799v1434h779v-117z" />
    <glyph glyph-name="F" unicode="F" horiz-adv-x="1003" 
d="M963 1317h-656v-467h512v-117h-512v-733h-123v1434h779v-117z" />
    <glyph glyph-name="G" unicode="G" horiz-adv-x="1495" 
d="M1239 276v457h-471v117h594v-604q-94 -121 -242 -193.5t-311 -72.5q-211 0 -379.5 95.5t-263 263.5t-94.5 378q0 205 92.5 373.5t258 266t368.5 97.5q153 0 289.5 -58t230.5 -161l-84 -84q-77 86 -191.5 136t-244.5 50q-169 0 -306 -83t-213.5 -225t-76.5 -312
q0 -173 77 -314.5t216.5 -224t314.5 -82.5q128 0 242 48t194 132z" />
    <glyph glyph-name="H" unicode="H" horiz-adv-x="1536" 
d="M1229 0v733h-922v-733h-123v1434h123v-584h922v584h123v-1434h-123z" />
    <glyph glyph-name="I" unicode="I" horiz-adv-x="491" 
d="M184 0v1434h123v-1434h-123z" />
    <glyph glyph-name="J" unicode="J" horiz-adv-x="890" 
d="M0 209l111 45q30 -70 94.5 -114t142.5 -44q70 0 128.5 33t92.5 90q35 59 35 174v1041h123v-1035q0 -163 -63 -254q-51 -77 -134.5 -121t-181.5 -44q-116 0 -210.5 63t-137.5 166z" />
    <glyph glyph-name="K" unicode="K" horiz-adv-x="1249" 
d="M1208 0h-164l-737 725v-725h-123v1434h123v-643l676 643h164l-709 -678z" />
    <glyph glyph-name="L" unicode="L" horiz-adv-x="1024" 
d="M307 1434v-1317h676v-117h-799v1434h123z" />
    <glyph glyph-name="M" unicode="M" horiz-adv-x="1708" 
d="M1401 1135l-506 -848h-82l-506 848v-1135h-123v1434h82l588 -985l588 985h82v-1434h-123v1135z" />
    <glyph glyph-name="N" unicode="N" horiz-adv-x="1536" 
d="M184 0v1434h82l963 -1194v1194h123v-1434h-82l-963 1194v-1194h-123z" />
    <glyph glyph-name="O" unicode="O" horiz-adv-x="1568" 
d="M72 717q0 154 54.5 291t149 234.5t226.5 154.5t282 57q200 0 363.5 -96.5t256.5 -265.5t93 -375t-93 -375t-256.5 -265.5t-363.5 -96.5q-150 0 -282 57t-226.5 154.5t-149 234.5t-54.5 291zM195 717q0 -126 44 -240t120.5 -198t187 -133.5t237.5 -49.5q169 0 305 84
t210.5 226t74.5 311t-74.5 310.5t-210.5 225.5t-305 84t-305 -84t-210 -225.5t-74 -310.5z" />
    <glyph glyph-name="P" unicode="P" horiz-adv-x="1187" 
d="M715 692h-408v-692h-123v1434h531q178 0 280 -86q61 -52 96 -126t35 -159t-35 -159t-96 -126q-102 -86 -280 -86zM307 809h402q145 0 221 76q74 74 74 178t-74 178q-76 76 -221 76h-402v-508z" />
    <glyph glyph-name="Q" unicode="Q" horiz-adv-x="1579" 
d="M72 717q0 154 54.5 291t149 234.5t226.5 154.5t282 57q200 0 363.5 -96.5t256.5 -265.5t93 -375q0 -281 -170 -488l211 -229h-156l-135 150q-197 -170 -463 -170q-150 0 -282 57t-226.5 154.5t-149 234.5t-54.5 291zM801 643l84 74l360 -395q129 167 129 395
q0 169 -74.5 310.5t-210.5 225.5t-305 84t-305 -84t-210 -225.5t-74 -310.5q0 -126 44 -240t120.5 -198t187 -133.5t237.5 -49.5q222 0 383 142z" />
    <glyph glyph-name="R" unicode="R" horiz-adv-x="1259" 
d="M1249 0h-147l-553 733h-242v-733h-123v1434h490q175 0 278 -93q53 -48 83 -115t30 -143t-30 -143t-83 -115q-93 -87 -256 -92zM307 850h361q134 0 198 61q76 70 76 172t-76 172q-65 62 -198 62h-361v-467z" />
    <glyph glyph-name="S" unicode="S" horiz-adv-x="1056" 
d="M72 221l90 80q73 -95 164 -150t221 -55q114 0 204.5 75t90.5 194q0 62 -24.5 112.5t-62 82.5t-93.5 62.5t-108.5 51.5t-117.5 50.5t-110 57.5q-92 57 -143.5 126t-51.5 169q0 165 117 271t291 106q200 0 366 -143l-78 -90q-67 59 -133 87.5t-151 28.5q-123 0 -206 -70
t-83 -184q0 -52 23 -94.5t59 -70t89 -55t103 -47.5t112.5 -48.5t107.5 -56.5q217 -135 217 -346q0 -168 -120.5 -276.5t-297.5 -108.5q-292 0 -475 241z" />
    <glyph glyph-name="T" unicode="T" horiz-adv-x="1024" 
d="M41 1434h942v-117h-410v-1317h-122v1317h-410v117z" />
    <glyph glyph-name="U" unicode="U" horiz-adv-x="1474" 
d="M737 -20q-153 0 -283 70t-206 190q-84 133 -84 333v861h123v-867q0 -165 63 -266q61 -95 163 -150t224 -55t224 55t163 150q64 103 64 266v867h123v-861q0 -200 -84 -333q-76 -120 -206 -190t-284 -70z" />
    <glyph glyph-name="V" unicode="V" horiz-adv-x="1290" 
d="M1143 1434h127l-584 -1434h-82l-584 1434h127l498 -1229z" />
    <glyph glyph-name="W" unicode="W" horiz-adv-x="1929" 
d="M924 1434h82l383 -1186l385 1186h124l-471 -1434h-81l-381 1178l-381 -1178h-82l-471 1434h125l385 -1186z" />
    <glyph glyph-name="X" unicode="X" horiz-adv-x="1249" 
d="M180 0h-139l504 786l-414 648h137l357 -555l356 555h137l-413 -648l503 -786h-139l-444 694z" />
    <glyph glyph-name="Y" unicode="Y" horiz-adv-x="1146" 
d="M1126 1434l-491 -760v-674h-123v674l-492 760h140l413 -641l414 641h139z" />
    <glyph glyph-name="Z" unicode="Z" horiz-adv-x="1198" 
d="M82 76l838 1241h-777v117h942v-76l-833 -1241h874v-117h-1044v76z" />
    <glyph glyph-name="bracketleft" unicode="[" horiz-adv-x="870" 
d="M328 -410v1844h460v-111h-344v-1622h344v-111h-460z" />
    <glyph glyph-name="backslash" unicode="\" horiz-adv-x="808" 
d="M799 0h-119l-670 1434h119z" />
    <glyph glyph-name="bracketright" unicode="]" horiz-adv-x="870" 
d="M543 1434v-1844h-461v111h344v1622h-344v111h461z" />
    <glyph glyph-name="asciicircum" unicode="^" horiz-adv-x="923" 
d="M61 717l363 717h76l362 -717h-121l-280 545l-279 -545h-121z" />
    <glyph glyph-name="underscore" unicode="_" horiz-adv-x="921" 
d="M41 0h840v-100h-840v100z" />
    <glyph glyph-name="grave" unicode="`" horiz-adv-x="573" 
d="M143 1372h154l133 -287h-92z" />
    <glyph glyph-name="a" unicode="a" horiz-adv-x="1191" 
d="M1018 0h-113v137q-54 -72 -142 -114.5t-194 -42.5q-155 0 -278 88q-93 65 -146 169.5t-53 229.5q0 115 46.5 214.5t127.5 168.5q129 104 297 104q101 0 190 -39t152 -110v129h113v-934zM901 295v360q-40 68 -130.5 128.5t-205.5 60.5q-125 0 -225 -80q-62 -51 -96.5 -129
t-34.5 -168q0 -96 39.5 -177.5t107.5 -129.5q101 -70 211 -70q102 0 190 54.5t144 150.5z" />
    <glyph glyph-name="b" unicode="b" horiz-adv-x="1191" 
d="M291 655v-360q56 -96 144 -150.5t190 -54.5q110 0 211 70q68 48 107.5 129.5t39.5 177.5q0 90 -34.5 168t-96.5 129q-100 80 -225 80q-115 0 -205.5 -60.5t-130.5 -128.5zM623 -20q-106 0 -194 42.5t-142 114.5v-137h-113v1454h117v-645q136 145 338 145q168 0 297 -104
q81 -69 127.5 -168.5t46.5 -214.5q0 -125 -53 -229.5t-146 -169.5q-123 -88 -278 -88z" />
    <glyph glyph-name="c" unicode="c" horiz-adv-x="1034" 
d="M889 219l84 -78q-69 -77 -165.5 -119t-203.5 -42q-98 0 -188.5 34.5t-160 96t-111.5 154.5t-42 202q0 130 61.5 241.5t173.5 178.5t249 67q211 0 356 -145l-74 -84q-122 119 -282 119q-150 0 -258.5 -109.5t-108.5 -267.5t110 -267.5t273 -109.5q164 0 287 129z" />
    <glyph glyph-name="d" unicode="d" horiz-adv-x="1191" 
d="M901 295v360q-40 68 -130.5 128.5t-205.5 60.5q-125 0 -225 -80q-62 -51 -96.5 -129t-34.5 -168q0 -96 39.5 -177.5t107.5 -129.5q101 -70 211 -70q102 0 190 54.5t144 150.5zM569 -20q-155 0 -278 88q-93 65 -146 169.5t-53 229.5q0 115 46.5 214.5t127.5 168.5
q129 104 297 104q202 0 338 -145v645h117v-1454h-113v137q-54 -72 -142 -114.5t-194 -42.5z" />
    <glyph glyph-name="e" unicode="e" horiz-adv-x="1064" 
d="M539 844q-122 0 -209.5 -78.5t-114.5 -202.5h637q-19 124 -105.5 202.5t-207.5 78.5zM860 229l82 -77q-58 -73 -157 -122.5t-224 -49.5q-200 0 -334.5 136t-134.5 351q0 133 56 244t159 177t232 66q187 0 310.5 -130.5t123.5 -325.5q0 -23 -2 -41h-762q6 -156 101 -261.5
t251 -105.5q185 0 299 139z" />
    <glyph glyph-name="f" unicode="f" horiz-adv-x="737" 
d="M696 1464l-22 -108q-31 8 -70 8q-121 0 -182 -88q-22 -32 -32.5 -74.5t-10.5 -120.5v-147h317v-111h-317v-823h-117v823h-242v111h242v141q0 191 78 285q95 115 266 115q37 0 90 -11z" />
    <glyph glyph-name="g" unicode="g" horiz-adv-x="1191" 
d="M1018 4q0 -204 -51 -301q-54 -100 -156 -157.5t-250 -57.5q-133 0 -243 58.5t-181 164.5l92 68q114 -180 334 -180q113 0 188.5 43t112.5 116t37 242v133q-55 -70 -141 -111.5t-191 -41.5q-155 0 -278 88q-93 65 -146 169.5t-53 229.5q0 115 46.5 214.5t127.5 168.5
q129 104 297 104q101 0 190 -39t152 -110v129h113v-930zM901 295v360q-40 68 -130.5 128.5t-205.5 60.5q-125 0 -225 -80q-62 -51 -96.5 -129t-34.5 -168q0 -96 39.5 -177.5t107.5 -129.5q101 -70 211 -70q102 0 190 54.5t144 150.5z" />
    <glyph glyph-name="h" unicode="h" horiz-adv-x="1181" 
d="M291 1454v-645q54 71 140.5 108t184.5 37q102 0 188.5 -40.5t143.5 -116.5q41 -55 60.5 -122t19.5 -177v-498h-117v489q0 155 -53 230q-40 59 -104 92t-140 33q-101 0 -185 -51t-138 -144v-649h-117v1454h117z" />
    <glyph glyph-name="i" unicode="i" horiz-adv-x="464" 
d="M174 0v934h117v-934h-117zM129 1257q0 43 30 74t72 31q43 0 74 -31t31 -74q0 -42 -31 -72t-74 -30t-72.5 29.5t-29.5 72.5z" />
    <glyph glyph-name="j" unicode="j" horiz-adv-x="552" 
d="M-20 -506l10 109q20 -4 51 -4q56 0 104.5 23t77.5 65q21 31 30 72.5t9 121.5v1053h117v-1053q0 -105 -18 -169.5t-56 -110.5q-44 -54 -112.5 -83.5t-145.5 -29.5q-43 0 -67 6zM217 1257q0 43 30 74t72 31q43 0 74 -31t31 -74q0 -42 -31 -72t-74 -30t-72.5 29.5
t-29.5 72.5z" />
    <glyph glyph-name="k" unicode="k" horiz-adv-x="1015" 
d="M985 0h-164l-530 494v-494h-117v1454h117v-909l477 389h174l-512 -420z" />
    <glyph glyph-name="l" unicode="l" horiz-adv-x="464" 
d="M174 0v1454h117v-1454h-117z" />
    <glyph glyph-name="m" unicode="m" horiz-adv-x="1878" 
d="M287 934v-127q52 67 136 107t179 40q116 0 208 -53t142 -145q139 198 367 198q114 0 206 -52.5t144 -143.5q55 -99 55 -264v-494h-116v479q0 162 -54 242q-38 57 -99 90t-136 33q-106 0 -190.5 -62t-131.5 -155q11 -68 11 -133v-494h-117v479q0 163 -53 242
q-38 57 -99.5 90t-136.5 33q-95 0 -180 -53.5t-131 -141.5v-649h-117v934h113z" />
    <glyph glyph-name="n" unicode="n" horiz-adv-x="1181" 
d="M287 934v-131q56 74 142.5 112.5t186.5 38.5q102 0 188.5 -40.5t143.5 -116.5q41 -55 60.5 -122t19.5 -177v-498h-117v489q0 155 -53 230q-40 59 -104 92t-140 33q-101 0 -185 -51t-138 -144v-649h-117v934h113z" />
    <glyph glyph-name="o" unicode="o" horiz-adv-x="1146" 
d="M938 467q0 158 -104 267.5t-261 109.5t-260.5 -109.5t-103.5 -267.5t103.5 -267.5t260.5 -109.5t261 109.5t104 267.5zM1055 467q0 -133 -61.5 -244.5t-172.5 -177t-248 -65.5t-247.5 65.5t-172 177t-61.5 244.5t61.5 244.5t172 177t247.5 65.5t248 -65.5t172.5 -177
t61.5 -244.5z" />
    <glyph glyph-name="p" unicode="p" horiz-adv-x="1191" 
d="M291 -492h-117v1426h113v-129q63 71 152 110t190 39q168 0 297 -104q81 -69 127.5 -168.5t46.5 -214.5q0 -125 -53 -229.5t-146 -169.5q-123 -88 -278 -88q-105 0 -191 41.5t-141 111.5v-625zM291 655v-360q56 -96 144 -150.5t190 -54.5q110 0 211 70q68 48 107.5 129.5
t39.5 177.5q0 90 -34.5 168t-96.5 129q-100 80 -225 80q-115 0 -205.5 -60.5t-130.5 -128.5z" />
    <glyph glyph-name="q" unicode="q" horiz-adv-x="1191" 
d="M1018 -492h-117v625q-55 -70 -141 -111.5t-191 -41.5q-155 0 -278 88q-93 65 -146 169.5t-53 229.5q0 115 46.5 214.5t127.5 168.5q129 104 297 104q101 0 190 -39t152 -110v129h113v-1426zM901 295v360q-40 68 -130.5 128.5t-205.5 60.5q-125 0 -225 -80
q-62 -51 -96.5 -129t-34.5 -168q0 -96 39.5 -177.5t107.5 -129.5q101 -70 211 -70q102 0 190 54.5t144 150.5z" />
    <glyph glyph-name="r" unicode="r" horiz-adv-x="716" 
d="M655 950l-16 -108q-12 2 -55 2q-94 0 -175 -57.5t-118 -149.5v-637h-117v934h117v-123q37 57 116 100t179 43q45 0 69 -4z" />
    <glyph glyph-name="s" unicode="s" horiz-adv-x="870" 
d="M82 113l72 90q133 -113 282 -113q90 0 152.5 46t62.5 118q0 43 -23 74.5t-61 49t-86.5 33.5t-98.5 27.5t-98.5 31.5t-86.5 44.5t-61 67.5t-23 100q0 62 27 114t72 86t101.5 53t116.5 19q167 0 301 -90l-61 -96q-64 41 -115 58.5t-119 17.5q-82 0 -144.5 -42t-62.5 -118
q0 -42 29.5 -71t77.5 -46.5t105 -32.5t114.5 -35t105.5 -47.5t77.5 -76t29.5 -115.5q0 -127 -93.5 -203.5t-230.5 -76.5q-218 0 -362 133z" />
    <glyph glyph-name="t" unicode="t" horiz-adv-x="819" 
d="M707 934v-111h-318v-512q0 -104 41 -155q53 -66 156 -66q58 0 100 12l21 -106q-50 -16 -121 -16q-167 0 -250 106q-64 80 -64 229v508h-262v111h262v254h117v-254h318z" />
    <glyph glyph-name="u" unicode="u" horiz-adv-x="1161" 
d="M874 0v127q-51 -66 -135.5 -106.5t-179.5 -40.5q-115 0 -207 51t-143 141q-55 99 -55 264v498h116v-479q0 -162 54 -242q38 -57 99 -90t136 -33q95 0 180 53.5t131 141.5v649h117v-934h-113z" />
    <glyph glyph-name="v" unicode="v" horiz-adv-x="1003" 
d="M541 0h-76l-434 934h127l344 -746l344 746h127z" />
    <glyph glyph-name="w" unicode="w" horiz-adv-x="1560" 
d="M780 743l-303 -743h-76l-360 934h121l282 -733l299 733h74l299 -733l283 733h121l-361 -934h-76z" />
    <glyph glyph-name="x" unicode="x" horiz-adv-x="946" 
d="M778 0l-305 424l-305 -424h-137l360 502l-309 432h137l254 -354l254 354h137l-309 -432l360 -502h-137z" />
    <glyph glyph-name="y" unicode="y" horiz-adv-x="997" 
d="M319 -492h-122l256 568l-422 858h131l350 -725l330 725h125z" />
    <glyph glyph-name="z" unicode="z" horiz-adv-x="962" 
d="M82 70l623 753h-572v111h748v-70l-625 -753h645v-111h-819v70z" />
    <glyph glyph-name="braceleft" unicode="{" horiz-adv-x="870" 
d="M356 512q90 -37 90 -180q0 -80 -11 -219t-11 -203q0 -119 44 -164t165 -45h53v-111h-61q-173 0 -245.5 75.5t-72.5 232.5q0 80 10.5 226t10.5 216q0 74 -36 105.5t-108 31.5v70q72 0 108 31.5t36 105.5q0 70 -10.5 216t-10.5 226q0 157 72.5 232.5t245.5 75.5h61v-111
h-53q-121 0 -165 -45t-44 -164q0 -64 11 -203t11 -219q0 -143 -90 -180z" />
    <glyph glyph-name="bar" unicode="|" horiz-adv-x="362" 
d="M123 -410v1844h117v-1844h-117z" />
    <glyph glyph-name="braceright" unicode="}" horiz-adv-x="870" 
d="M514 512q-90 37 -90 180q0 80 11 219t11 203q0 119 -43.5 164t-164.5 45h-54v111h62q173 0 245 -75.5t72 -232.5q0 -80 -10 -226t-10 -216q0 -74 35.5 -105.5t107.5 -31.5v-70q-72 0 -107.5 -31.5t-35.5 -105.5q0 -70 10 -216t10 -226q0 -157 -72 -232.5t-245 -75.5h-62
v111h54q121 0 164.5 45t43.5 164q0 64 -11 203t-11 219q0 143 90 180z" />
    <glyph glyph-name="asciitilde" unicode="~" horiz-adv-x="1064" 
d="M178 401l-96 48q30 104 93.5 162.5t156.5 58.5q57 0 116 -28.5t101 -62t91.5 -62t88.5 -28.5q60 0 96 42t62 116l96 -47q-30 -104 -93.5 -162.5t-156.5 -58.5q-57 0 -116 28t-101 62t-91.5 62t-88.5 28q-60 0 -96 -42t-62 -116z" />
    <glyph glyph-name="uni00A0" unicode="&#xa0;" horiz-adv-x="552" 
 />
    <glyph glyph-name="exclamdown" unicode="&#xa1;" horiz-adv-x="491" 
d="M188 8l21 504h76l20 -504v-500h-117v500zM139 848q0 44 31.5 75t75.5 31t75 -31t31 -75t-31 -75.5t-75 -31.5t-75.5 31.5t-31.5 75.5z" />
    <glyph glyph-name="cent" unicode="&#xa2;" horiz-adv-x="1024" 
d="M879 219l84 -78q-128 -143 -328 -159v-218h-117v222q-180 26 -303 156t-123 325q0 185 119.5 323t306.5 160v240h117v-240q169 -16 297 -141l-74 -84q-122 119 -283 119q-149 0 -257.5 -109.5t-108.5 -267.5t110 -267.5t273 -109.5q164 0 287 129z" />
    <glyph glyph-name="sterling" unicode="&#xa3;" horiz-adv-x="1054" 
d="M113 690v111h172q-26 60 -39 93t-26 85.5t-13 97.5q0 165 107 270t268 107q119 0 206 -57t134 -137l-95 -66q-88 149 -245 149q-43 0 -86.5 -16t-83 -46.5t-64 -84t-24.5 -119.5q0 -21 4 -45t8.5 -41t16 -48t17 -43.5t22 -50.5t20.5 -48h262v-111h-221q34 -104 34 -194
q0 -223 -151 -385h657v-111h-921v70q131 49 215 164t84 264q0 83 -41 192h-217z" />
    <glyph glyph-name="currency" unicode="&#xa4;" horiz-adv-x="1105" 
d="M152 719q0 130 84 242l-154 153l76 76l153 -154q112 84 242 84q132 0 244 -84l151 154l76 -76l-152 -153q82 -109 82 -242q0 -135 -82 -244l152 -151l-76 -76l-151 151q-109 -82 -244 -82q-133 0 -242 82l-153 -151l-76 76l154 151q-84 112 -84 244zM268 719
q0 -119 83 -202t202 -83t202 83t83 202t-83 202t-202 83t-202 -83t-83 -202z" />
    <glyph glyph-name="yen" unicode="&#xa5;" horiz-adv-x="1146" 
d="M1126 1434l-325 -502h223v-111h-295l-94 -147v-60h389v-110h-389v-504h-123v504h-389v110h389v60l-96 147h-293v111h221l-324 502h140l413 -641l414 641h139z" />
    <glyph glyph-name="brokenbar" unicode="&#xa6;" horiz-adv-x="444" 
d="M164 -410v799h117v-799h-117zM164 635v799h117v-799h-117z" />
    <glyph glyph-name="section" unicode="&#xa7;" horiz-adv-x="1187" 
d="M1065 424q0 -95 -44.5 -173.5t-121.5 -133.5q90 -83 90 -223q0 -160 -119 -262.5t-288 -102.5q-201 0 -367 143l76 88q66 -58 133.5 -86t153.5 -28q122 0 205 68.5t83 179.5q0 46 -18.5 84.5t-44.5 63.5t-73 48.5t-84 37t-97 32.5q-52 16 -88 28.5t-84.5 33.5t-81 41.5
t-68 51.5t-56.5 65t-34.5 80t-13.5 99q0 186 166 305q-90 87 -90 226q0 159 118.5 261.5t288.5 102.5q201 0 367 -143l-76 -88q-66 58 -133.5 86t-153.5 28q-122 0 -205 -68t-83 -179q0 -39 11.5 -71.5t35 -58t49.5 -44.5t67 -37t73 -29.5t81 -26.5q52 -16 88 -28.5
t84.5 -33.5t81 -41.5t68 -51.5t56.5 -65t34.5 -80t13.5 -99zM653 696q-15 5 -50.5 16.5t-55 18.5t-49 17.5t-54 21t-47.5 21.5q-67 -38 -110 -98.5t-43 -133.5q0 -44 16.5 -81.5t41.5 -64.5t65.5 -51.5t78 -40.5t89.5 -34q191 -66 253 -97q69 38 112.5 98.5t43.5 135.5
q0 55 -23 99t-67 76t-90.5 53.5t-110.5 43.5z" />
    <glyph glyph-name="dieresis" unicode="&#xa8;" horiz-adv-x="827" 
d="M477 1217q0 43 30 73.5t73 30.5t73.5 -30.5t30.5 -73.5t-30.5 -73t-73.5 -30t-73 30t-30 73zM143 1217q0 43 30 73.5t73 30.5t73.5 -30.5t30.5 -73.5t-30.5 -73t-73.5 -30t-73 30t-30 73z" />
    <glyph glyph-name="copyright" unicode="&#xa9;" horiz-adv-x="1720" 
d="M1130 1024l-55 -72q-91 84 -207 84q-126 0 -209.5 -87.5t-83.5 -227.5q0 -137 83 -225t216 -88q126 0 226 86l55 -72q-53 -48 -127 -76.5t-154 -28.5q-172 0 -283.5 116.5t-111.5 287.5t111.5 288t277.5 117q152 0 262 -102zM143 717q0 145 57 278t153 229t229 153
t278 57t278 -57t229 -153t153 -229t57 -278t-57 -278t-153 -229t-229 -153t-278 -57t-278 57t-229 153t-153 229t-57 278zM240 717q0 -125 49.5 -240t132.5 -198.5t198 -133t240 -49.5t240 49.5t198.5 133t133 198.5t49.5 240t-49.5 240t-133 198t-198.5 132.5t-240 49.5
q-167 0 -310 -83.5t-226.5 -226.5t-83.5 -310z" />
    <glyph glyph-name="ordfeminine" unicode="&#xaa;" horiz-adv-x="831" 
d="M608 1001v271q-77 88 -184 88q-98 0 -159.5 -64t-61.5 -159q0 -96 61.5 -160t159.5 -64q107 0 184 88zM422 819q-138 0 -229 91.5t-91 226.5t91 226t229 91q64 0 112.5 -24.5t73.5 -55.5v60h101v-594h-101v59q-25 -31 -73.5 -55.5t-112.5 -24.5z" />
    <glyph glyph-name="guillemotleft" unicode="&#xab;" horiz-adv-x="1095" 
d="M868 860h146l-324 -379l324 -379h-146l-295 344v70zM459 860h145l-323 -379l323 -379h-145l-295 344v70z" />
    <glyph glyph-name="logicalnot" unicode="&#xac;" horiz-adv-x="1085" 
d="M862 289v360h-749v111h860v-471h-111z" />
    <glyph glyph-name="uni00AD" unicode="&#xad;" horiz-adv-x="860" 
d="M164 561h532v-100h-532v100z" />
    <glyph glyph-name="registered" unicode="&#xae;" horiz-adv-x="1720" 
d="M143 717q0 145 57 278t153 229t229 153t278 57t278 -57t229 -153t153 -229t57 -278t-57 -278t-153 -229t-229 -153t-278 -57t-278 57t-229 153t-153 229t-57 278zM240 717q0 -125 49.5 -240t132.5 -198.5t198 -133t240 -49.5t240 49.5t198.5 133t133 198.5t49.5 240
t-49.5 240t-133 198t-198.5 132.5t-240 49.5q-167 0 -310 -83.5t-226.5 -226.5t-83.5 -310zM1176 330h-109l-264 385h-103v-385h-96v784h270q124 0 183 -59t59 -142q0 -84 -59 -143q-47 -47 -142 -55zM700 803h168q94 0 125 39q27 30 27 71q0 42 -27 72q-31 39 -125 39h-168
v-221z" />
    <glyph glyph-name="macron" unicode="&#xaf;" horiz-adv-x="860" 
d="M143 1282h574v-102h-574v102z" />
    <glyph glyph-name="degree" unicode="&#xb0;" horiz-adv-x="798" 
d="M82 1137q0 132 92.5 224.5t224.5 92.5t225 -92.5t93 -224.5t-93 -225t-225 -93t-224.5 93t-92.5 225zM186 1137q0 -88 61.5 -149.5t149.5 -61.5t150.5 61.5t62.5 149.5t-62.5 150.5t-150.5 62.5t-149.5 -62.5t-61.5 -150.5z" />
    <glyph glyph-name="plusminus" unicode="&#xb1;" horiz-adv-x="1085" 
d="M973 555h-375v-330h-111v330h-374v111h374v329h111v-329h375v-111zM973 53h-860v111h860v-111z" />
    <glyph glyph-name="twosuperior" unicode="&#xb2;" horiz-adv-x="569" 
d="M143 1255l-84 35q16 49 42.5 83.5t58.5 51t60.5 23t58.5 6.5q93 0 157 -63.5t64 -153.5q0 -44 -17.5 -88t-37 -71.5t-54.5 -69.5l-180 -222h297v-90h-457v49l256 312q39 48 53.5 67t28.5 50.5t14 62.5q0 52 -35.5 89.5t-88.5 37.5q-95 0 -136 -109z" />
    <glyph glyph-name="threesuperior" unicode="&#xb3;" horiz-adv-x="577" 
d="M477 1384l-162 -204q73 -18 125 -70q76 -76 76 -180q0 -105 -74 -179.5t-186 -74.5q-73 0 -137.5 34.5t-98.5 90.5l78 55q22 -41 67 -65.5t91 -24.5q69 0 116.5 47t47.5 117q0 75 -51 121.5t-125 46.5q-47 0 -82 -15v50l164 210h-271v91h422v-50z" />
    <glyph glyph-name="acute" unicode="&#xb4;" horiz-adv-x="573" 
d="M276 1372h154l-194 -287h-93z" />
    <glyph glyph-name="mu" unicode="&#xb5;" horiz-adv-x="1181" 
d="M580 -20q-186 0 -289 133v-605h-117v1426h117v-479q0 -163 53 -242q38 -57 99.5 -90t136.5 -33q95 0 180 53.5t131 141.5v649h117v-934h-113v127q-51 -66 -135.5 -106.5t-179.5 -40.5z" />
    <glyph glyph-name="paragraph" unicode="&#xb6;" horiz-adv-x="1341" 
d="M543 1434h696v-111h-205v-1733h-116v1733h-300v-1733h-116v963q-183 0 -312 128.5t-129 311.5q0 143 83 257t214 159q70 25 185 25zM178 993q0 -137 94.5 -233t229.5 -96v659q-135 0 -229.5 -96.5t-94.5 -233.5z" />
    <glyph glyph-name="periodcentered" unicode="&#xb7;" horiz-adv-x="622" 
d="M205 467q0 44 31 75t75 31t75.5 -31t31.5 -75t-31.5 -75.5t-75.5 -31.5t-75 31.5t-31 75.5z" />
    <glyph glyph-name="cedilla" unicode="&#xb8;" horiz-adv-x="491" 
d="M143 -287l113 307h92l-51 -307h-154z" />
    <glyph glyph-name="onesuperior" unicode="&#xb9;" horiz-adv-x="419" 
d="M211 1309l-150 -76v98l191 103h55v-738h-96v613z" />
    <glyph glyph-name="ordmasculine" unicode="&#xba;" horiz-adv-x="831" 
d="M102 1137q0 133 89 225t225 92t224.5 -92t88.5 -225t-88.5 -225.5t-224.5 -92.5t-225 92.5t-89 225.5zM203 1137q0 -92 61.5 -158t151.5 -66t151.5 66t61.5 158t-61.5 157.5t-151.5 65.5q-92 0 -152.5 -65.5t-60.5 -157.5z" />
    <glyph glyph-name="guillemotright" unicode="&#xbb;" horiz-adv-x="1095" 
d="M82 860h145l295 -344v-70l-295 -344h-145l324 379zM492 860h145l295 -344v-70l-295 -344h-145l323 379z" />
    <glyph glyph-name="onequarter" unicode="&#xbc;" horiz-adv-x="1136" 
d="M543 174v49l395 514h55v-473h123v-90h-123v-174h-96v174h-354zM690 264h207v268zM188 0h-106l836 1434h106zM211 1309l-150 -76v98l191 103h55v-738h-96v613z" />
    <glyph glyph-name="onehalf" unicode="&#xbd;" horiz-adv-x="1214" 
d="M188 0h-106l836 1434h106zM211 1309l-150 -76v98l191 103h55v-738h-96v613zM788 559l-83 35q53 164 219 164q93 0 157 -63.5t64 -153.5q0 -63 -28 -115t-81 -115l-180 -221h297v-90h-457v49l256 311q40 49 54 67.5t28.5 50.5t14.5 63q0 52 -36 89.5t-89 37.5
q-95 0 -136 -109z" />
    <glyph glyph-name="threequarters" unicode="&#xbe;" horiz-adv-x="1234" 
d="M641 174v49l395 514h56v-473h122v-90h-122v-174h-97v174h-354zM788 264h207v268zM287 0h-107l836 1434h106zM477 1384l-162 -204q73 -18 125 -70q76 -76 76 -180q0 -105 -74 -179.5t-186 -74.5q-73 0 -137.5 34.5t-98.5 90.5l78 55q22 -41 67 -65.5t91 -24.5
q69 0 116.5 47t47.5 117q0 75 -51 121.5t-125 46.5q-47 0 -82 -15v50l164 210h-271v91h422v-50z" />
    <glyph glyph-name="questiondown" unicode="&#xbf;" horiz-adv-x="1024" 
d="M770 -203l111 -33q-31 -121 -141.5 -198.5t-258.5 -77.5q-175 0 -292 107.5t-117 261.5q0 114 55 194t145 146q29 21 75 51t71.5 47t46 41t20.5 47q0 44 -69 109l86 81q56 -56 78 -96.5t22 -93.5q0 -40 -15.5 -73t-46.5 -61t-60 -48t-74 -48.5t-72 -48.5
q-146 -110 -146 -247q0 -109 83 -183.5t210 -74.5q109 0 189 55.5t100 142.5zM598 848q0 -44 -31 -75.5t-75 -31.5t-75.5 31.5t-31.5 75.5t31.5 75t75.5 31t75 -31t31 -75z" />
    <glyph glyph-name="Agrave" unicode="&#xc0;" horiz-adv-x="1339" 
d="M424 1802h154l133 -286h-93zM629 1434h82l618 -1434h-123l-188 432h-696l-189 -432h-123zM670 1241l-299 -692h596z" />
    <glyph glyph-name="Aacute" unicode="&#xc1;" horiz-adv-x="1339" 
d="M762 1802h153l-194 -286h-92zM629 1434h82l618 -1434h-123l-188 432h-696l-189 -432h-123zM670 1241l-299 -692h596z" />
    <glyph glyph-name="Acircumflex" unicode="&#xc2;" horiz-adv-x="1339" 
d="M670 1708l-174 -192h-93l195 286h143l195 -286h-92zM629 1434h82l618 -1434h-123l-188 432h-696l-189 -432h-123zM670 1241l-299 -692h596z" />
    <glyph glyph-name="Atilde" unicode="&#xc3;" horiz-adv-x="1339" 
d="M465 1569l-82 22q2 68 42 119t110 51q44 0 91 -23t88.5 -46t73.5 -23q68 0 74 92l82 -22q-2 -68 -41.5 -119t-109.5 -51q-44 0 -91 23t-89 46t-74 23q-68 0 -74 -92zM629 1434h82l618 -1434h-123l-188 432h-696l-189 -432h-123zM670 1241l-299 -692h596z" />
    <glyph glyph-name="Adieresis" unicode="&#xc4;" horiz-adv-x="1339" 
d="M733 1647q0 43 30 73.5t73 30.5t73.5 -30.5t30.5 -73.5t-30.5 -73t-73.5 -30t-73 30t-30 73zM399 1647q0 43 30 73.5t73 30.5t73.5 -30.5t30.5 -73.5t-30.5 -73t-73.5 -30t-73 30t-30 73zM629 1434h82l618 -1434h-123l-188 432h-696l-189 -432h-123zM670 1241l-299 -692
h596z" />
    <glyph glyph-name="Aring" unicode="&#xc5;" horiz-adv-x="1339" 
d="M485 1679q0 77 54.5 131t130.5 54t130 -54t54 -131t-54 -130.5t-130 -53.5q-77 0 -131 54t-54 130zM567 1679q0 -43 30 -72.5t73 -29.5t72.5 29.5t29.5 72.5t-29.5 73t-72.5 30t-73 -30t-30 -73zM629 1434h82l618 -1434h-123l-188 432h-696l-189 -432h-123zM670 1241
l-299 -692h596z" />
    <glyph glyph-name="AE" unicode="&#xc6;" horiz-adv-x="1781" 
d="M1679 1317h-655v-467h512v-117h-512v-616h676v-117h-799v432h-547l-260 -432h-135l856 1434h864v-117zM424 549h477v803z" />
    <glyph glyph-name="Ccedilla" unicode="&#xc7;" horiz-adv-x="1402" 
d="M625 -287l98 271q-190 19 -338 118t-230.5 259.5t-82.5 355.5q0 205 92.5 373.5t258 266t368.5 97.5q153 0 289.5 -58t230.5 -161l-84 -84q-77 86 -191.5 136t-244.5 50q-169 0 -306 -83t-213.5 -225t-76.5 -312q0 -173 77 -314.5t216.5 -224t314.5 -82.5q144 0 268.5 62
t202.5 164l88 -78q-92 -118 -236 -189.5t-305 -74.5l-43 -267h-153z" />
    <glyph glyph-name="Egrave" unicode="&#xc8;" horiz-adv-x="1064" 
d="M963 1317h-656v-467h512v-117h-512v-616h676v-117h-799v1434h779v-117zM342 1802h154l133 -286h-92z" />
    <glyph glyph-name="Eacute" unicode="&#xc9;" horiz-adv-x="1064" 
d="M963 1317h-656v-467h512v-117h-512v-616h676v-117h-799v1434h779v-117zM653 1802h154l-195 -286h-92z" />
    <glyph glyph-name="Ecircumflex" unicode="&#xca;" horiz-adv-x="1064" 
d="M963 1317h-656v-467h512v-117h-512v-616h676v-117h-799v1434h779v-117zM584 1708l-174 -192h-93l195 286h143l195 -286h-92z" />
    <glyph glyph-name="Edieresis" unicode="&#xcb;" horiz-adv-x="1064" 
d="M963 1317h-656v-467h512v-117h-512v-616h676v-117h-799v1434h779v-117zM647 1647q0 43 30 73.5t73 30.5t73.5 -30.5t30.5 -73.5t-30.5 -73t-73.5 -30t-73 30t-30 73zM313 1647q0 43 30 73.5t73 30.5t73.5 -30.5t30.5 -73.5t-30.5 -73t-73.5 -30t-73 30t-30 73z" />
    <glyph glyph-name="Igrave" unicode="&#xcc;" horiz-adv-x="491" 
d="M184 0v1434h123v-1434h-123zM0 1802h154l133 -286h-92z" />
    <glyph glyph-name="Iacute" unicode="&#xcd;" horiz-adv-x="491" 
d="M184 0v1434h123v-1434h-123zM338 1802h154l-195 -286h-92z" />
    <glyph glyph-name="Icircumflex" unicode="&#xce;" horiz-adv-x="491" 
d="M184 0v1434h123v-1434h-123zM246 1708l-174 -192h-92l194 286h143l195 -286h-92z" />
    <glyph glyph-name="Idieresis" unicode="&#xcf;" horiz-adv-x="491" 
d="M184 0v1434h123v-1434h-123zM309 1647q0 43 30 73.5t73 30.5t73.5 -30.5t30.5 -73.5t-30.5 -73t-73.5 -30t-73 30t-30 73zM-25 1647q0 43 30 73.5t73 30.5t73.5 -30.5t30.5 -73.5t-30.5 -73t-73.5 -30t-73 30t-30 73z" />
    <glyph glyph-name="Eth" unicode="&#xd0;" horiz-adv-x="1443" 
d="M-20 733v117h204v584h410q308 0 493 -136q133 -99 209 -251.5t76 -329.5t-76 -330t-209 -252q-184 -135 -493 -135h-410v733h-204zM1249 717q0 144 -59.5 269.5t-165.5 209.5q-154 121 -436 121h-281v-467h410v-117h-410v-616h281q282 0 436 121q106 84 165.5 209.5
t59.5 269.5z" />
    <glyph glyph-name="Ntilde" unicode="&#xd1;" horiz-adv-x="1536" 
d="M184 0v1434h82l963 -1194v1194h123v-1434h-82l-963 1194v-1194h-123zM567 1569l-82 22q2 68 42 119t110 51q44 0 91 -23t89 -46t74 -23q68 0 74 92l82 -22q-2 -68 -42 -119t-110 -51q-44 0 -91 23t-89 46t-74 23q-68 0 -74 -92z" />
    <glyph glyph-name="Ograve" unicode="&#xd2;" horiz-adv-x="1568" 
d="M72 717q0 154 54.5 291t149 234.5t226.5 154.5t282 57q200 0 363.5 -96.5t256.5 -265.5t93 -375t-93 -375t-256.5 -265.5t-363.5 -96.5q-150 0 -282 57t-226.5 154.5t-149 234.5t-54.5 291zM195 717q0 -126 44 -240t120.5 -198t187 -133.5t237.5 -49.5q169 0 305 84
t210.5 226t74.5 311t-74.5 310.5t-210.5 225.5t-305 84t-305 -84t-210 -225.5t-74 -310.5zM545 1802h153l133 -286h-92z" />
    <glyph glyph-name="Oacute" unicode="&#xd3;" horiz-adv-x="1568" 
d="M72 717q0 154 54.5 291t149 234.5t226.5 154.5t282 57q200 0 363.5 -96.5t256.5 -265.5t93 -375t-93 -375t-256.5 -265.5t-363.5 -96.5q-150 0 -282 57t-226.5 154.5t-149 234.5t-54.5 291zM195 717q0 -126 44 -240t120.5 -198t187 -133.5t237.5 -49.5q169 0 305 84
t210.5 226t74.5 311t-74.5 310.5t-210.5 225.5t-305 84t-305 -84t-210 -225.5t-74 -310.5zM877 1802h155l-196 -286h-95z" />
    <glyph glyph-name="Ocircumflex" unicode="&#xd4;" horiz-adv-x="1568" 
d="M72 717q0 154 54.5 291t149 234.5t226.5 154.5t282 57q200 0 363.5 -96.5t256.5 -265.5t93 -375t-93 -375t-256.5 -265.5t-363.5 -96.5q-150 0 -282 57t-226.5 154.5t-149 234.5t-54.5 291zM195 717q0 -126 44 -240t120.5 -198t187 -133.5t237.5 -49.5q169 0 305 84
t210.5 226t74.5 311t-74.5 310.5t-210.5 225.5t-305 84t-305 -84t-210 -225.5t-74 -310.5zM784 1708l-174 -192h-92l195 286h143l195 -286h-93z" />
    <glyph glyph-name="Otilde" unicode="&#xd5;" horiz-adv-x="1568" 
d="M72 717q0 154 54.5 291t149 234.5t226.5 154.5t282 57q200 0 363.5 -96.5t256.5 -265.5t93 -375t-93 -375t-256.5 -265.5t-363.5 -96.5q-150 0 -282 57t-226.5 154.5t-149 234.5t-54.5 291zM195 717q0 -126 44 -240t120.5 -198t187 -133.5t237.5 -49.5q169 0 305 84
t210.5 226t74.5 311t-74.5 310.5t-210.5 225.5t-305 84t-305 -84t-210 -225.5t-74 -310.5zM586 1569l-82 22q2 68 41.5 119t109.5 51q44 0 91 -23t89 -46t74 -23q68 0 74 92l82 -22q-2 -68 -42 -119t-110 -51q-44 0 -91 23t-89 46t-74 23q-67 0 -73 -92z" />
    <glyph glyph-name="Odieresis" unicode="&#xd6;" horiz-adv-x="1568" 
d="M72 717q0 154 54.5 291t149 234.5t226.5 154.5t282 57q200 0 363.5 -96.5t256.5 -265.5t93 -375t-93 -375t-256.5 -265.5t-363.5 -96.5q-150 0 -282 57t-226.5 154.5t-149 234.5t-54.5 291zM195 717q0 -126 44 -240t120.5 -198t187 -133.5t237.5 -49.5q169 0 305 84
t210.5 226t74.5 311t-74.5 310.5t-210.5 225.5t-305 84t-305 -84t-210 -225.5t-74 -310.5zM848 1647q0 43 29.5 73.5t72.5 30.5t74 -30.5t31 -73.5t-31 -73t-74 -30t-72.5 30t-29.5 73zM514 1647q0 43 29.5 73.5t72.5 30.5t74 -30.5t31 -73.5t-31 -73t-74 -30t-72.5 30
t-29.5 73z" />
    <glyph glyph-name="multiply" unicode="&#xd7;" horiz-adv-x="1081" 
d="M850 137l-309 309l-310 -309l-77 78l309 309l-309 310l77 77l310 -309l309 309l78 -77l-310 -310l310 -309z" />
    <glyph glyph-name="Oslash" unicode="&#xd8;" horiz-adv-x="1568" 
d="M72 717q0 154 54.5 291t149 234.5t226.5 154.5t282 57q208 0 375 -104l74 104h135l-121 -170q117 -101 183.5 -248.5t66.5 -318.5q0 -206 -93 -375t-256.5 -265.5t-363.5 -96.5q-209 0 -376 104l-74 -104h-133l118 170q-117 101 -182 248.5t-65 318.5zM1374 717
q0 138 -51.5 259t-144.5 208l-703 -1002q138 -86 309 -86q169 0 305 84t210.5 226t74.5 311zM195 717q0 -139 50.5 -259.5t143.5 -207.5l703 1001q-138 86 -308 86q-169 0 -305 -84t-210 -225.5t-74 -310.5z" />
    <glyph glyph-name="Ugrave" unicode="&#xd9;" horiz-adv-x="1474" 
d="M737 -20q-153 0 -283 70t-206 190q-84 133 -84 333v861h123v-867q0 -165 63 -266q61 -95 163 -150t224 -55t224 55t163 150q64 103 64 266v867h123v-861q0 -200 -84 -333q-76 -120 -206 -190t-284 -70zM496 1802h153l133 -286h-92z" />
    <glyph glyph-name="Uacute" unicode="&#xda;" horiz-adv-x="1474" 
d="M737 -20q-153 0 -283 70t-206 190q-84 133 -84 333v861h123v-867q0 -165 63 -266q61 -95 163 -150t224 -55t224 55t163 150q64 103 64 266v867h123v-861q0 -200 -84 -333q-76 -120 -206 -190t-284 -70zM825 1802h154l-195 -286h-92z" />
    <glyph glyph-name="Ucircumflex" unicode="&#xdb;" horiz-adv-x="1474" 
d="M737 -20q-153 0 -283 70t-206 190q-84 133 -84 333v861h123v-867q0 -165 63 -266q61 -95 163 -150t224 -55t224 55t163 150q64 103 64 266v867h123v-861q0 -200 -84 -333q-76 -120 -206 -190t-284 -70zM737 1708l-174 -192h-92l195 286h143l195 -286h-93z" />
    <glyph glyph-name="Udieresis" unicode="&#xdc;" horiz-adv-x="1474" 
d="M737 -20q-153 0 -283 70t-206 190q-84 133 -84 333v861h123v-867q0 -165 63 -266q61 -95 163 -150t224 -55t224 55t163 150q64 103 64 266v867h123v-861q0 -200 -84 -333q-76 -120 -206 -190t-284 -70zM801 1647q0 43 29.5 73.5t72.5 30.5t74 -30.5t31 -73.5t-31 -73
t-74 -30t-72.5 30t-29.5 73zM467 1647q0 43 29.5 73.5t72.5 30.5t74 -30.5t31 -73.5t-31 -73t-74 -30t-72.5 30t-29.5 73z" />
    <glyph glyph-name="Yacute" unicode="&#xdd;" horiz-adv-x="1146" 
d="M1126 1434l-491 -760v-674h-123v674l-492 760h140l413 -641l414 641h139zM664 1802h153l-194 -286h-93z" />
    <glyph glyph-name="Thorn" unicode="&#xde;" horiz-adv-x="1187" 
d="M184 1434h123v-347h408q178 0 280 -86q61 -52 96 -125.5t35 -158.5t-35 -159t-96 -126q-102 -86 -280 -86h-408v-346h-123v1434zM307 463h402q145 0 221 76q74 74 74 178t-74 178q-76 76 -221 76h-402v-508z" />
    <glyph glyph-name="germandbls" unicode="&#xdf;" 
d="M401 43l62 92q76 -45 170 -45q139 0 232 94t93 230q0 81 -34 149t-95 113q-86 63 -237 63h-80v111h45q123 0 195.5 73t72.5 183q0 111 -72.5 184.5t-195.5 73.5q-134 0 -207 -86q-30 -35 -44.5 -88.5t-14.5 -145.5v-1044h-117v1044q0 212 96 316q109 115 287 115
q171 0 278 -106.5t107 -262.5q0 -182 -133 -287q122 -50 194 -159.5t72 -245.5q0 -183 -124.5 -308.5t-311.5 -125.5q-149 0 -238 63z" />
    <glyph glyph-name="agrave" unicode="&#xe0;" horiz-adv-x="1191" 
d="M418 1372h153l134 -287h-93zM1018 0h-113v137q-54 -72 -142 -114.5t-194 -42.5q-155 0 -278 88q-93 65 -146 169.5t-53 229.5q0 115 46.5 214.5t127.5 168.5q129 104 297 104q101 0 190 -39t152 -110v129h113v-934zM901 295v360q-40 68 -130.5 128.5t-205.5 60.5
q-125 0 -225 -80q-62 -51 -96.5 -129t-34.5 -168q0 -96 39.5 -177.5t107.5 -129.5q101 -70 211 -70q102 0 190 54.5t144 150.5z" />
    <glyph glyph-name="aacute" unicode="&#xe1;" horiz-adv-x="1191" 
d="M686 1372h154l-195 -287h-92zM1018 0h-113v137q-54 -72 -142 -114.5t-194 -42.5q-155 0 -278 88q-93 65 -146 169.5t-53 229.5q0 115 46.5 214.5t127.5 168.5q129 104 297 104q101 0 190 -39t152 -110v129h113v-934zM901 295v360q-40 68 -130.5 128.5t-205.5 60.5
q-125 0 -225 -80q-62 -51 -96.5 -129t-34.5 -168q0 -96 39.5 -177.5t107.5 -129.5q101 -70 211 -70q102 0 190 54.5t144 150.5z" />
    <glyph glyph-name="acircumflex" unicode="&#xe2;" horiz-adv-x="1191" 
d="M604 1278l-174 -193h-92l194 287h144l194 -287h-92zM1018 0h-113v137q-54 -72 -142 -114.5t-194 -42.5q-155 0 -278 88q-93 65 -146 169.5t-53 229.5q0 115 46.5 214.5t127.5 168.5q129 104 297 104q101 0 190 -39t152 -110v129h113v-934zM901 295v360
q-40 68 -130.5 128.5t-205.5 60.5q-125 0 -225 -80q-62 -51 -96.5 -129t-34.5 -168q0 -96 39.5 -177.5t107.5 -129.5q101 -70 211 -70q102 0 190 54.5t144 150.5z" />
    <glyph glyph-name="atilde" unicode="&#xe3;" horiz-adv-x="1191" 
d="M389 1139l-82 22q2 68 42 119t110 51q44 0 91 -23t89 -46t74 -23q67 0 73 92l82 -22q-2 -68 -41.5 -119t-109.5 -51q-44 0 -91 23t-89 46t-74 23q-68 0 -74 -92zM1018 0h-113v137q-54 -72 -142 -114.5t-194 -42.5q-155 0 -278 88q-93 65 -146 169.5t-53 229.5
q0 115 46.5 214.5t127.5 168.5q129 104 297 104q101 0 190 -39t152 -110v129h113v-934zM901 295v360q-40 68 -130.5 128.5t-205.5 60.5q-125 0 -225 -80q-62 -51 -96.5 -129t-34.5 -168q0 -96 39.5 -177.5t107.5 -129.5q101 -70 211 -70q102 0 190 54.5t144 150.5z" />
    <glyph glyph-name="adieresis" unicode="&#xe4;" horiz-adv-x="1191" 
d="M662 1217q0 43 29.5 73.5t72.5 30.5t73.5 -30.5t30.5 -73.5t-30.5 -73t-73.5 -30t-72.5 30t-29.5 73zM328 1217q0 43 29.5 73.5t72.5 30.5t74 -30.5t31 -73.5t-31 -73t-74 -30t-72.5 30t-29.5 73zM1018 0h-113v137q-54 -72 -142 -114.5t-194 -42.5q-155 0 -278 88
q-93 65 -146 169.5t-53 229.5q0 115 46.5 214.5t127.5 168.5q129 104 297 104q101 0 190 -39t152 -110v129h113v-934zM901 295v360q-40 68 -130.5 128.5t-205.5 60.5q-125 0 -225 -80q-62 -51 -96.5 -129t-34.5 -168q0 -96 39.5 -177.5t107.5 -129.5q101 -70 211 -70
q102 0 190 54.5t144 150.5z" />
    <glyph glyph-name="aring" unicode="&#xe5;" horiz-adv-x="1191" 
d="M414 1249q0 77 54 131t130 54t130 -54t54 -131t-54 -130.5t-130 -53.5t-130 53.5t-54 130.5zM496 1249q0 -43 29.5 -72.5t72.5 -29.5t72.5 29.5t29.5 72.5t-29.5 73t-72.5 30t-72.5 -30t-29.5 -73zM1018 0h-113v137q-54 -72 -142 -114.5t-194 -42.5q-155 0 -278 88
q-93 65 -146 169.5t-53 229.5q0 115 46.5 214.5t127.5 168.5q129 104 297 104q101 0 190 -39t152 -110v129h113v-934zM901 295v360q-40 68 -130.5 128.5t-205.5 60.5q-125 0 -225 -80q-62 -51 -96.5 -129t-34.5 -168q0 -96 39.5 -177.5t107.5 -129.5q101 -70 211 -70
q102 0 190 54.5t144 150.5z" />
    <glyph glyph-name="ae" unicode="&#xe6;" horiz-adv-x="1873" 
d="M1014 0h-109v137q-54 -72 -142 -114.5t-194 -42.5q-155 0 -278 88q-93 65 -146 169.5t-53 229.5q0 115 46.5 214.5t127.5 168.5q129 104 297 104q101 0 190 -39t152 -110v129h109v-143q124 163 334 163q187 0 310.5 -130.5t123.5 -325.5q0 -23 -2 -41h-762
q6 -156 101 -261.5t251 -105.5q185 0 299 139l82 -77q-58 -73 -157 -122.5t-224 -49.5q-223 0 -356 172v-152zM901 295v360q-40 68 -130.5 128.5t-205.5 60.5q-125 0 -225 -80q-62 -51 -96.5 -129t-34.5 -168q0 -96 39.5 -177.5t107.5 -129.5q101 -70 211 -70
q102 0 190 54.5t144 150.5zM1348 844q-122 0 -209.5 -78.5t-114.5 -202.5h637q-19 124 -105.5 202.5t-207.5 78.5z" />
    <glyph glyph-name="ccedilla" unicode="&#xe7;" horiz-adv-x="1034" 
d="M889 219l84 -78q-125 -143 -330 -159l-43 -269h-154l99 271q-186 20 -314.5 151.5t-128.5 331.5q0 130 61.5 241.5t173.5 178.5t249 67q211 0 356 -145l-74 -84q-122 119 -282 119q-150 0 -258.5 -109.5t-108.5 -267.5t110 -267.5t273 -109.5q164 0 287 129z" />
    <glyph glyph-name="egrave" unicode="&#xe8;" horiz-adv-x="1064" 
d="M346 1372h154l133 -287h-92zM539 844q-122 0 -209.5 -78.5t-114.5 -202.5h637q-19 124 -105.5 202.5t-207.5 78.5zM860 229l82 -77q-58 -73 -157 -122.5t-224 -49.5q-200 0 -334.5 136t-134.5 351q0 133 56 244t159 177t232 66q187 0 310.5 -130.5t123.5 -325.5
q0 -23 -2 -41h-762q6 -156 101 -261.5t251 -105.5q185 0 299 139z" />
    <glyph glyph-name="eacute" unicode="&#xe9;" horiz-adv-x="1064" 
d="M623 1372h153l-194 -287h-93zM539 844q-122 0 -209.5 -78.5t-114.5 -202.5h637q-19 124 -105.5 202.5t-207.5 78.5zM860 229l82 -77q-58 -73 -157 -122.5t-224 -49.5q-200 0 -334.5 136t-134.5 351q0 133 56 244t159 177t232 66q187 0 310.5 -130.5t123.5 -325.5
q0 -23 -2 -41h-762q6 -156 101 -261.5t251 -105.5q185 0 299 139z" />
    <glyph glyph-name="ecircumflex" unicode="&#xea;" horiz-adv-x="1064" 
d="M561 1278l-174 -193h-92l194 287h144l194 -287h-92zM539 844q-122 0 -209.5 -78.5t-114.5 -202.5h637q-19 124 -105.5 202.5t-207.5 78.5zM860 229l82 -77q-58 -73 -157 -122.5t-224 -49.5q-200 0 -334.5 136t-134.5 351q0 133 56 244t159 177t232 66q187 0 310.5 -130.5
t123.5 -325.5q0 -23 -2 -41h-762q6 -156 101 -261.5t251 -105.5q185 0 299 139z" />
    <glyph glyph-name="edieresis" unicode="&#xeb;" horiz-adv-x="1064" 
d="M625 1217q0 43 29.5 73.5t72.5 30.5t73.5 -30.5t30.5 -73.5t-30.5 -73t-73.5 -30t-72.5 30t-29.5 73zM291 1217q0 43 29.5 73.5t72.5 30.5t74 -30.5t31 -73.5t-31 -73t-74 -30t-72.5 30t-29.5 73zM539 844q-122 0 -209.5 -78.5t-114.5 -202.5h637q-19 124 -105.5 202.5
t-207.5 78.5zM860 229l82 -77q-58 -73 -157 -122.5t-224 -49.5q-200 0 -334.5 136t-134.5 351q0 133 56 244t159 177t232 66q187 0 310.5 -130.5t123.5 -325.5q0 -23 -2 -41h-762q6 -156 101 -261.5t251 -105.5q185 0 299 139z" />
    <glyph glyph-name="igrave" unicode="&#xec;" horiz-adv-x="464" 
d="M174 0v934h117v-934h-117zM-18 1372h153l133 -287h-92z" />
    <glyph glyph-name="iacute" unicode="&#xed;" horiz-adv-x="464" 
d="M174 0v934h117v-934h-117zM330 1372h153l-194 -287h-92z" />
    <glyph glyph-name="icircumflex" unicode="&#xee;" horiz-adv-x="464" 
d="M174 0v934h117v-934h-117zM231 1278l-174 -193h-92l195 287h143l195 -287h-92z" />
    <glyph glyph-name="idieresis" unicode="&#xef;" horiz-adv-x="464" 
d="M174 0v934h117v-934h-117zM295 1217q0 43 29.5 73.5t72.5 30.5t74 -30.5t31 -73.5t-31 -73t-74 -30t-72.5 30t-29.5 73zM-39 1217q0 43 29.5 73.5t72.5 30.5t74 -30.5t31 -73.5t-31 -73t-74 -30t-72.5 30t-29.5 73z" />
    <glyph glyph-name="eth" unicode="&#xf0;" horiz-adv-x="1146" 
d="M502 1257l-129 197h135l92 -139l242 139l55 -92l-238 -137l269 -402q127 -192 127 -358q0 -131 -61 -242t-172.5 -177t-248.5 -66q-206 0 -343.5 141t-137.5 346q0 206 138.5 346.5t351.5 140.5q63 0 135 -20l-156 233l-246 -143l-57 94zM831 756q-47 39 -113 63.5
t-136 24.5q-164 0 -268.5 -107.5t-104.5 -269.5q0 -158 103.5 -267.5t260.5 -109.5t261 109.5t104 267.5q0 83 -31.5 160.5t-75.5 128.5z" />
    <glyph glyph-name="ntilde" unicode="&#xf1;" horiz-adv-x="1181" 
d="M408 1139l-82 22q2 68 41.5 119t109.5 51q44 0 91 -23t89 -46t74 -23q68 0 74 92l82 -22q-2 -68 -42 -119t-110 -51q-44 0 -91 23t-89 46t-74 23q-67 0 -73 -92zM287 934v-131q56 74 142.5 112.5t186.5 38.5q102 0 188.5 -40.5t143.5 -116.5q41 -55 60.5 -122t19.5 -177
v-498h-117v489q0 155 -53 230q-40 59 -104 92t-140 33q-101 0 -185 -51t-138 -144v-649h-117v934h113z" />
    <glyph glyph-name="ograve" unicode="&#xf2;" horiz-adv-x="1146" 
d="M938 467q0 158 -104 267.5t-261 109.5t-260.5 -109.5t-103.5 -267.5t103.5 -267.5t260.5 -109.5t261 109.5t104 267.5zM1055 467q0 -133 -61.5 -244.5t-172.5 -177t-248 -65.5t-247.5 65.5t-172 177t-61.5 244.5t61.5 244.5t172 177t247.5 65.5t248 -65.5t172.5 -177
t61.5 -244.5zM332 1372h153l133 -287h-92z" />
    <glyph glyph-name="oacute" unicode="&#xf3;" horiz-adv-x="1146" 
d="M938 467q0 158 -104 267.5t-261 109.5t-260.5 -109.5t-103.5 -267.5t103.5 -267.5t260.5 -109.5t261 109.5t104 267.5zM1055 467q0 -133 -61.5 -244.5t-172.5 -177t-248 -65.5t-247.5 65.5t-172 177t-61.5 244.5t61.5 244.5t172 177t247.5 65.5t248 -65.5t172.5 -177
t61.5 -244.5zM668 1372h153l-194 -287h-92z" />
    <glyph glyph-name="ocircumflex" unicode="&#xf4;" horiz-adv-x="1146" 
d="M938 467q0 158 -104 267.5t-261 109.5t-260.5 -109.5t-103.5 -267.5t103.5 -267.5t260.5 -109.5t261 109.5t104 267.5zM1055 467q0 -133 -61.5 -244.5t-172.5 -177t-248 -65.5t-247.5 65.5t-172 177t-61.5 244.5t61.5 244.5t172 177t247.5 65.5t248 -65.5t172.5 -177
t61.5 -244.5zM573 1278l-174 -193h-92l195 287h143l195 -287h-92z" />
    <glyph glyph-name="otilde" unicode="&#xf5;" horiz-adv-x="1146" 
d="M938 467q0 158 -104 267.5t-261 109.5t-260.5 -109.5t-103.5 -267.5t103.5 -267.5t260.5 -109.5t261 109.5t104 267.5zM1055 467q0 -133 -61.5 -244.5t-172.5 -177t-248 -65.5t-247.5 65.5t-172 177t-61.5 244.5t61.5 244.5t172 177t247.5 65.5t248 -65.5t172.5 -177
t61.5 -244.5zM375 1139l-82 22q2 68 41.5 119t109.5 51q44 0 91 -23t89 -46t74 -23q68 0 74 92l82 -22q-2 -68 -42 -119t-110 -51q-44 0 -91 23t-88.5 46t-73.5 23q-68 0 -74 -92z" />
    <glyph glyph-name="odieresis" unicode="&#xf6;" horiz-adv-x="1146" 
d="M938 467q0 158 -104 267.5t-261 109.5t-260.5 -109.5t-103.5 -267.5t103.5 -267.5t260.5 -109.5t261 109.5t104 267.5zM1055 467q0 -133 -61.5 -244.5t-172.5 -177t-248 -65.5t-247.5 65.5t-172 177t-61.5 244.5t61.5 244.5t172 177t247.5 65.5t248 -65.5t172.5 -177
t61.5 -244.5zM637 1217q0 43 29.5 73.5t72.5 30.5t74 -30.5t31 -73.5t-31 -73t-74 -30t-72.5 30t-29.5 73zM303 1217q0 43 30 73.5t73 30.5t73.5 -30.5t30.5 -73.5t-30.5 -73t-73.5 -30t-73 30t-30 73z" />
    <glyph glyph-name="divide" unicode="&#xf7;" horiz-adv-x="1085" 
d="M973 469h-860v111h860v-111zM440 872q0 43 30 73t73 30t72.5 -30t29.5 -73t-29.5 -72.5t-72.5 -29.5t-73 29.5t-30 72.5zM440 176q0 43 30 73t73 30t72.5 -30t29.5 -73t-29.5 -72.5t-72.5 -29.5t-73 29.5t-30 72.5z" />
    <glyph glyph-name="oslash" unicode="&#xf8;" horiz-adv-x="1146" 
d="M1055 467q0 -133 -61.5 -244.5t-172.5 -177t-248 -65.5q-125 0 -237 59l-41 -59h-131l84 122q-74 66 -115 161.5t-41 203.5q0 133 61.5 244.5t172 177t247.5 65.5q130 0 236 -61l43 61h131l-86 -123q74 -68 116 -163t42 -201zM209 467q0 -163 108 -274l424 610
q-74 41 -168 41q-157 0 -260.5 -109.5t-103.5 -267.5zM938 467q0 164 -111 272l-421 -610q76 -39 167 -39q157 0 261 109.5t104 267.5z" />
    <glyph glyph-name="ugrave" unicode="&#xf9;" horiz-adv-x="1161" 
d="M346 1372h154l133 -287h-92zM874 0v127q-51 -66 -135.5 -106.5t-179.5 -40.5q-115 0 -207 51t-143 141q-55 99 -55 264v498h116v-479q0 -162 54 -242q38 -57 99 -90t136 -33q95 0 180 53.5t131 141.5v649h117v-934h-113z" />
    <glyph glyph-name="uacute" unicode="&#xfa;" horiz-adv-x="1161" 
d="M659 1372h154l-195 -287h-92zM874 0v127q-51 -66 -135.5 -106.5t-179.5 -40.5q-115 0 -207 51t-143 141q-55 99 -55 264v498h116v-479q0 -162 54 -242q38 -57 99 -90t136 -33q95 0 180 53.5t131 141.5v649h117v-934h-113z" />
    <glyph glyph-name="ucircumflex" unicode="&#xfb;" horiz-adv-x="1161" 
d="M575 1278l-174 -193h-92l195 287h143l195 -287h-92zM874 0v127q-51 -66 -135.5 -106.5t-179.5 -40.5q-115 0 -207 51t-143 141q-55 99 -55 264v498h116v-479q0 -162 54 -242q38 -57 99 -90t136 -33q95 0 180 53.5t131 141.5v649h117v-934h-113z" />
    <glyph glyph-name="udieresis" unicode="&#xfc;" horiz-adv-x="1161" 
d="M641 1217q0 43 29.5 73.5t72.5 30.5t74 -30.5t31 -73.5t-31 -73t-74 -30t-72.5 30t-29.5 73zM307 1217q0 43 30 73.5t73 30.5t73.5 -30.5t30.5 -73.5t-30.5 -73t-73.5 -30t-73 30t-30 73zM874 0v127q-51 -66 -135.5 -106.5t-179.5 -40.5q-115 0 -207 51t-143 141
q-55 99 -55 264v498h116v-479q0 -162 54 -242q38 -57 99 -90t136 -33q95 0 180 53.5t131 141.5v649h117v-934h-113z" />
    <glyph glyph-name="yacute" unicode="&#xfd;" horiz-adv-x="997" 
d="M578 1372h153l-194 -287h-93zM319 -492h-122l256 568l-422 858h131l350 -725l330 725h125z" />
    <glyph glyph-name="thorn" unicode="&#xfe;" horiz-adv-x="1191" 
d="M291 655v-360q56 -96 144 -150.5t190 -54.5q110 0 211 70q68 48 107.5 129.5t39.5 177.5q0 90 -34.5 168t-96.5 129q-100 80 -225 80q-115 0 -205.5 -60.5t-130.5 -128.5zM174 -492v1946h117v-645q136 145 338 145q168 0 297 -104q81 -69 127.5 -168.5t46.5 -214.5
q0 -125 -53 -229.5t-146 -169.5q-123 -88 -278 -88q-105 0 -191 41.5t-141 111.5v-625h-117z" />
    <glyph glyph-name="ydieresis" unicode="&#xff;" horiz-adv-x="997" 
d="M569 1217q0 43 30 73.5t73 30.5t73.5 -30.5t30.5 -73.5t-30.5 -73t-73.5 -30t-73 30t-30 73zM236 1217q0 43 29.5 73.5t72.5 30.5t73.5 -30.5t30.5 -73.5t-30.5 -73t-73.5 -30t-72.5 30t-29.5 73zM319 -492h-122l256 568l-422 858h131l350 -725l330 725h125z" />
    <glyph glyph-name="dotlessi" unicode="&#x131;" horiz-adv-x="464" 
d="M174 0v934h117v-934h-117z" />
    <glyph glyph-name="Lslash" unicode="&#x141;" horiz-adv-x="1024" 
d="M307 1434v-543l307 178v-129l-307 -178v-645h676v-117h-799v692l-204 -119v129l204 119v613h123z" />
    <glyph glyph-name="lslash" unicode="&#x142;" horiz-adv-x="464" 
d="M174 0v692l-205 -119v127l205 117v637h117v-569l205 119v-125l-205 -119v-760h-117z" />
    <glyph glyph-name="OE" unicode="&#x152;" horiz-adv-x="2254" 
d="M2152 1317h-655v-467h512v-117h-512v-616h676v-117h-799v297q-94 -147 -249.5 -232t-340.5 -85q-150 0 -282 57t-226.5 154.5t-149 234.5t-54.5 291t54.5 291t149 234.5t226.5 154.5t282 57q185 0 340.5 -86t249.5 -233v299h778v-117zM784 96q169 0 305 84t210.5 226
t74.5 311t-74.5 310.5t-210.5 225.5t-305 84t-305 -84t-210 -225.5t-74 -310.5q0 -126 44 -240t120.5 -198t187 -133.5t237.5 -49.5z" />
    <glyph glyph-name="oe" unicode="&#x153;" horiz-adv-x="1912" 
d="M1706 229l82 -77q-58 -73 -157 -122.5t-224 -49.5q-138 0 -246.5 68.5t-167.5 189.5q-57 -119 -166.5 -188.5t-253.5 -69.5q-137 0 -247.5 65.5t-172 177t-61.5 244.5t61.5 244.5t172 177t247.5 65.5q142 0 249.5 -69t168.5 -187q54 117 157 186.5t236 69.5
q187 0 311 -130.5t124 -325.5q0 -23 -2 -41h-762q6 -156 101 -261.5t251 -105.5q185 0 299 139zM938 467q0 158 -104 267.5t-261 109.5t-260.5 -109.5t-103.5 -267.5t103.5 -267.5t260.5 -109.5t261 109.5t104 267.5zM1384 844q-122 0 -209 -78.5t-114 -202.5h637
q-19 124 -106 202.5t-208 78.5z" />
    <glyph glyph-name="Scaron" unicode="&#x160;" horiz-adv-x="1056" 
d="M352 1823l174 -193l174 193h93l-195 -287h-143l-195 287h92zM72 221l90 80q73 -95 164 -150t221 -55q114 0 204.5 75t90.5 194q0 62 -24.5 112.5t-62 82.5t-93.5 62.5t-108.5 51.5t-117.5 50.5t-110 57.5q-92 57 -143.5 126t-51.5 169q0 165 117 271t291 106
q200 0 366 -143l-78 -90q-67 59 -133 87.5t-151 28.5q-123 0 -206 -70t-83 -184q0 -52 23 -94.5t59 -70t89 -55t103 -47.5t112.5 -48.5t107.5 -56.5q217 -135 217 -346q0 -168 -120.5 -276.5t-297.5 -108.5q-292 0 -475 241z" />
    <glyph glyph-name="scaron" unicode="&#x161;" horiz-adv-x="870" 
d="M82 113l72 90q133 -113 282 -113q90 0 152.5 46t62.5 118q0 43 -23 74.5t-61 49t-86.5 33.5t-98.5 27.5t-98.5 31.5t-86.5 44.5t-61 67.5t-23 100q0 62 27 114t72 86t101.5 53t116.5 19q167 0 301 -90l-61 -96q-64 41 -115 58.5t-119 17.5q-82 0 -144.5 -42t-62.5 -118
q0 -42 29.5 -71t77.5 -46.5t105 -32.5t114.5 -35t105.5 -47.5t77.5 -76t29.5 -115.5q0 -127 -93.5 -203.5t-230.5 -76.5q-218 0 -362 133zM250 1393l174 -193l174 193h92l-194 -287h-144l-194 287h92z" />
    <glyph glyph-name="Ydieresis" unicode="&#x178;" horiz-adv-x="1146" 
d="M1126 1434l-491 -760v-674h-123v674l-492 760h140l413 -641l414 641h139zM637 1647q0 43 29.5 73.5t72.5 30.5t74 -30.5t31 -73.5t-31 -73t-74 -30t-72.5 30t-29.5 73zM303 1647q0 43 30 73.5t73 30.5t73.5 -30.5t30.5 -73.5t-30.5 -73t-73.5 -30t-73 30t-30 73z" />
    <glyph glyph-name="Zcaron" unicode="&#x17d;" horiz-adv-x="1198" 
d="M82 76l838 1241h-777v117h942v-76l-833 -1241h874v-117h-1044v76zM432 1823l174 -193l174 193h92l-194 -287h-143l-195 287h92z" />
    <glyph glyph-name="zcaron" unicode="&#x17e;" horiz-adv-x="962" 
d="M82 70l623 753h-572v111h748v-70l-625 -753h645v-111h-819v70zM358 1393l174 -193l175 193h92l-195 -287h-143l-195 287h92z" />
    <glyph glyph-name="longs" unicode="&#x17f;" horiz-adv-x="780" 
d="M383 1081v-1081h-117v1075q0 185 80 281q47 57 116.5 88t149.5 31q93 0 168 -37l-47 -105q-71 31 -123 31q-118 0 -182 -92q-23 -33 -34 -73.5t-11 -117.5z" />
    <glyph glyph-name="florin" unicode="&#x192;" horiz-adv-x="1046" 
d="M569 1065q-38 -203 -47 -264h322v-111h-338q-12 -82 -32 -247t-40.5 -302t-50.5 -286q-41 -208 -160 -299q-89 -68 -231 -68q-98 0 -176 35l41 106q58 -30 135 -30q121 0 186.5 66.5t93.5 211.5q28 147 48.5 280t41.5 298.5t31 234.5h-293v111h308q19 120 51 286
q41 208 159 299q89 68 232 68q98 0 176 -35l-41 -106q-58 30 -135 30q-121 0 -187 -66.5t-94 -211.5z" />
    <glyph glyph-name="circumflex" unicode="&#x2c6;" horiz-adv-x="819" 
d="M410 1278l-174 -193h-93l195 287h143l195 -287h-92z" />
    <glyph glyph-name="caron" unicode="&#x2c7;" horiz-adv-x="819" 
d="M236 1393l174 -193l174 193h92l-195 -287h-143l-195 287h93z" />
    <glyph glyph-name="uni02C9" unicode="&#x2c9;" horiz-adv-x="1024" 
d="M143 1282h574v-102h-574v102z" />
    <glyph glyph-name="breve" unicode="&#x2d8;" horiz-adv-x="798" 
d="M553 1393h102q0 -106 -75 -181t-181 -75t-181 75t-75 181h103q0 -63 45 -108.5t108 -45.5t108.5 45.5t45.5 108.5z" />
    <glyph glyph-name="dotaccent" unicode="&#x2d9;" horiz-adv-x="493" 
d="M143 1257q0 43 30 74t73 31t73.5 -31t30.5 -74t-30.5 -72.5t-73.5 -29.5t-73 29.5t-30 72.5z" />
    <glyph glyph-name="ring" unicode="&#x2da;" horiz-adv-x="655" 
d="M143 1249q0 77 54.5 131t130.5 54t130 -54t54 -131t-54 -130.5t-130 -53.5q-77 0 -131 54t-54 130zM225 1249q0 -43 30 -72.5t73 -29.5t72.5 29.5t29.5 72.5t-29.5 73t-72.5 30t-73 -30t-30 -73z" />
    <glyph glyph-name="ogonek" unicode="&#x2db;" horiz-adv-x="634" 
d="M221 20h119q-13 -15 -28.5 -38.5t-34.5 -76t-19 -104.5q0 -78 38.5 -110.5t92.5 -32.5q37 0 82 10l21 -100q-44 -19 -113 -19q-108 0 -172 69t-64 173q0 59 18.5 115t34 80t25.5 34z" />
    <glyph glyph-name="tilde" unicode="&#x2dc;" horiz-adv-x="847" 
d="M225 1139l-82 22q2 68 42 119t110 51q44 0 91 -23t89 -46t74 -23q68 0 74 92l82 -22q-2 -68 -42 -119t-110 -51q-44 0 -91 23t-89 46t-74 23q-68 0 -74 -92z" />
    <glyph glyph-name="hungarumlaut" unicode="&#x2dd;" horiz-adv-x="880" 
d="M276 1372h154l-194 -287h-93zM584 1372h153l-194 -287h-92z" />
    <glyph glyph-name="uni0394" unicode="&#x394;" horiz-adv-x="1185" 
d="M631 1434l524 -1364v-70h-1124v70l524 1364h76zM592 1217l-428 -1106h858z" />
    <glyph glyph-name="uni03A9" unicode="&#x3a9;" horiz-adv-x="1556" 
d="M778 1343q-163 0 -300 -79.5t-218.5 -221.5t-81.5 -315q0 -87 18.5 -170.5t48 -147t65 -120t71 -96t65 -68t48.5 -41.5l18 -14v-70h-451v111h238q-10 10 -26 28.5t-57 80.5t-72.5 129t-57 170.5t-25.5 207.5q0 148 54.5 281.5t148.5 231.5t228 156t286 58t286 -58
t228 -156t148.5 -231.5t54.5 -281.5q0 -104 -24.5 -206t-59.5 -173t-70 -126.5t-59 -83.5l-25 -27h238v-111h-451v70q7 5 19 14t46.5 41.5t66.5 68.5t70.5 94.5t66 121t46.5 146.5t19 171q0 173 -81.5 315t-218.5 221.5t-300 79.5z" />
    <glyph glyph-name="uni03BC" unicode="&#x3bc;" horiz-adv-x="1181" 
d="M580 -20q-186 0 -289 133v-605h-117v1426h117v-479q0 -163 53 -242q38 -57 99.5 -90t136.5 -33q95 0 180 53.5t131 141.5v649h117v-934h-113v127q-51 -66 -135.5 -106.5t-179.5 -40.5z" />
    <glyph glyph-name="pi" unicode="&#x3c0;" horiz-adv-x="1085" 
d="M109 670l-99 59q73 118 191 168q88 37 217 37h657v-111h-205v-555q0 -71 17 -116t65 -80l-65 -92q-74 58 -103 118q-30 65 -30 189v536h-320v-823h-117v813q-129 -9 -208 -143z" />
    <glyph glyph-name="uni2007" unicode="&#x2007;" horiz-adv-x="1208" 
 />
    <glyph glyph-name="uni2008" unicode="&#x2008;" horiz-adv-x="622" 
 />
    <glyph glyph-name="uni200B" unicode="&#x200b;" horiz-adv-x="0" 
 />
    <glyph glyph-name="endash" unicode="&#x2013;" horiz-adv-x="921" 
d="M41 561h840v-100h-840v100z" />
    <glyph glyph-name="emdash" unicode="&#x2014;" horiz-adv-x="1536" 
d="M41 561h1454v-100h-1454v100z" />
    <glyph glyph-name="quoteleft" unicode="&#x2018;" horiz-adv-x="544" 
d="M422 1434l-146 -492h-153l196 492h103z" />
    <glyph glyph-name="quoteright" unicode="&#x2019;" horiz-adv-x="544" 
d="M123 942l145 492h154l-197 -492h-102z" />
    <glyph glyph-name="quotesinglbase" unicode="&#x201a;" horiz-adv-x="544" 
d="M123 -287l145 492h154l-197 -492h-102z" />
    <glyph glyph-name="quotedblleft" unicode="&#x201c;" horiz-adv-x="933" 
d="M811 1434l-145 -492h-154l197 492h102zM422 1434l-146 -492h-153l196 492h103z" />
    <glyph glyph-name="quotedblright" unicode="&#x201d;" horiz-adv-x="933" 
d="M123 942l145 492h154l-197 -492h-102zM512 942l145 492h154l-197 -492h-102z" />
    <glyph glyph-name="quotedblbase" unicode="&#x201e;" horiz-adv-x="933" 
d="M123 -287l145 492h154l-197 -492h-102zM512 -287l145 492h154l-197 -492h-102z" />
    <glyph glyph-name="dagger" unicode="&#x2020;" horiz-adv-x="1034" 
d="M459 -410v1221h-357v111h357v512h116v-512h357v-111h-357v-1221h-116z" />
    <glyph glyph-name="daggerdbl" unicode="&#x2021;" horiz-adv-x="1034" 
d="M102 430h357v381h-357v111h357v512h116v-512h357v-111h-357v-381h357v-111h-357v-729h-116v729h-357v111z" />
    <glyph glyph-name="bullet" unicode="&#x2022;" horiz-adv-x="1064" 
d="M164 467q0 152 108 260.5t260 108.5t260.5 -108.5t108.5 -260.5t-108.5 -260.5t-260.5 -108.5t-260 108.5t-108 260.5z" />
    <glyph glyph-name="ellipsis" unicode="&#x2026;" horiz-adv-x="1687" 
d="M225 86q0 44 31.5 75.5t75.5 31.5t75 -31.5t31 -75.5t-31 -75t-75 -31t-75.5 31t-31.5 75zM758 86q0 44 31 75.5t75 31.5t75.5 -31.5t31.5 -75.5t-31.5 -75t-75.5 -31t-75 31t-31 75zM1290 86q0 44 31.5 75.5t75.5 31.5t75 -31.5t31 -75.5t-31 -75t-75 -31t-75.5 31
t-31.5 75z" />
    <glyph glyph-name="perthousand" unicode="&#x2030;" horiz-adv-x="2426" 
d="M987 346q0 154 102 260.5t254 106.5q96 0 175.5 -45.5t126.5 -122.5q47 77 127 122.5t176 45.5q152 0 254 -106.5t102 -260.5t-102 -260t-254 -106q-97 0 -177 44.5t-126 122.5q-46 -78 -125.5 -122.5t-176.5 -44.5q-152 0 -254 106t-102 260zM123 1087q0 154 102 260.5
t254 106.5t254.5 -106.5t102.5 -260.5t-102 -260t-255 -106q-152 0 -254 106t-102 260zM1591 346q0 109 -72 186.5t-176 77.5t-175.5 -77.5t-71.5 -186.5t71.5 -186.5t175.5 -77.5t176 77.5t72 186.5zM727 1087q0 109 -72 187t-176 78t-176 -78t-72 -187t72 -186.5
t176 -77.5t176 77.5t72 186.5zM547 0h-107l836 1434h106zM2195 346q0 109 -71.5 186.5t-175.5 77.5t-176 -77.5t-72 -186.5t72 -186.5t176 -77.5t175.5 77.5t71.5 186.5z" />
    <glyph glyph-name="guilsinglleft" unicode="&#x2039;" horiz-adv-x="686" 
d="M459 860h145l-323 -379l323 -379h-145l-295 344v70z" />
    <glyph glyph-name="guilsinglright" unicode="&#x203a;" horiz-adv-x="686" 
d="M82 860h145l295 -344v-70l-295 -344h-145l324 379z" />
    <glyph glyph-name="fraction" unicode="&#x2044;" horiz-adv-x="962" 
d="M117 0h-107l836 1434h106z" />
    <glyph glyph-name="uni2070" unicode="&#x2070;" horiz-adv-x="655" 
d="M584 1065q0 -83 -14 -151.5t-43.5 -122.5t-80 -84.5t-118.5 -30.5t-118.5 30.5t-80 84.5t-43.5 122.5t-14 151.5t14 151.5t43.5 122.5t80 84.5t118.5 30.5t118.5 -30.5t80 -84.5t43.5 -122.5t14 -151.5zM168 1065q0 -131 38 -215t122 -84t121.5 84t37.5 215t-37.5 215
t-121.5 84t-122 -84t-38 -215z" />
    <glyph glyph-name="uni2074" unicode="&#x2074;" horiz-adv-x="614" 
d="M20 870v50l396 514h55v-473h123v-91h-123v-174h-96v174h-355zM168 961h207v268z" />
    <glyph glyph-name="uni2075" unicode="&#x2075;" horiz-adv-x="532" 
d="M236 1188q107 0 181.5 -75.5t74.5 -180.5q0 -107 -72.5 -181.5t-183.5 -74.5q-69 0 -125.5 29t-90.5 79l72 56q54 -74 141 -74q71 0 116.5 48.5t45.5 117.5q0 70 -47 119t-119 49q-59 0 -112 -39l-56 8l39 365h351v-91h-265l-18 -161q30 6 68 6z" />
    <glyph glyph-name="uni2076" unicode="&#x2076;" horiz-adv-x="610" 
d="M137 930q0 -69 46.5 -116.5t117.5 -47.5q70 0 116 48t46 116q0 70 -46 118t-116 48q-64 0 -119 -39q-45 -67 -45 -127zM426 1434l-168 -254q18 6 53 6q100 0 174 -75t74 -181t-73.5 -180t-184.5 -74q-112 0 -186 74.5t-74 179.5q0 57 24 110.5t70 122.5l182 271h109z" />
    <glyph glyph-name="uni2077" unicode="&#x2077;" horiz-adv-x="522" 
d="M154 696h-103l318 647h-338v91h461v-50z" />
    <glyph glyph-name="uni2078" unicode="&#x2078;" horiz-adv-x="600" 
d="M299 1063q-69 0 -115.5 -43.5t-46.5 -108.5q0 -61 46 -103t116 -42q71 0 116.5 42t45.5 103q0 65 -45.5 108.5t-116.5 43.5zM299 1364q-46 0 -79.5 -31t-33.5 -76t33.5 -75.5t79.5 -30.5q50 0 82.5 30t32.5 76t-33 76.5t-82 30.5zM299 676q-109 0 -183.5 69.5
t-74.5 165.5q0 64 33.5 118.5t87.5 84.5q-32 23 -52 62.5t-20 80.5q0 84 60.5 140.5t148.5 56.5q90 0 150.5 -56.5t60.5 -140.5q0 -41 -20 -80.5t-52 -62.5q54 -30 87.5 -84.5t33.5 -118.5q0 -96 -75.5 -165.5t-184.5 -69.5z" />
    <glyph glyph-name="uni2079" unicode="&#x2079;" horiz-adv-x="610" 
d="M463 1200q0 69 -46.5 116.5t-117.5 47.5q-70 0 -116 -48t-46 -116q0 -70 46 -118t116 -48q64 0 119 39q45 67 45 127zM174 696l168 254q-18 -6 -53 -6q-100 0 -174 75t-74 181t73.5 180t184.5 74q112 0 186 -74.5t74 -179.5q0 -57 -24 -110.5t-70 -122.5l-182 -271h-109z
" />
    <glyph glyph-name="uni2080" unicode="&#x2080;" horiz-adv-x="655" 
d="M584 369q0 -83 -14 -151.5t-43.5 -122.5t-80 -84.5t-118.5 -30.5t-118.5 30.5t-80 84.5t-43.5 122.5t-14 151.5t14 151.5t43.5 122.5t80 84.5t118.5 30.5t118.5 -30.5t80 -84.5t43.5 -122.5t14 -151.5zM168 369q0 -131 38 -215t122 -84t121.5 84t37.5 215t-37.5 215
t-121.5 84t-122 -84t-38 -215z" />
    <glyph glyph-name="uni2081" unicode="&#x2081;" horiz-adv-x="419" 
d="M211 612l-150 -75v98l191 102h55v-737h-96v612z" />
    <glyph glyph-name="uni2082" unicode="&#x2082;" horiz-adv-x="569" 
d="M143 559l-84 35q16 49 42.5 83.5t58.5 51t60.5 23t58.5 6.5q93 0 157 -63.5t64 -153.5q0 -63 -28 -115t-81 -115l-180 -221h297v-90h-457v49l256 311q38 47 53 67t29 51.5t14 62.5q0 52 -35.5 89.5t-88.5 37.5q-95 0 -136 -109z" />
    <glyph glyph-name="uni2083" unicode="&#x2083;" horiz-adv-x="577" 
d="M477 688l-162 -205q74 -18 125 -69q76 -76 76 -181t-74 -179t-186 -74q-73 0 -137.5 34t-98.5 90l78 56q22 -41 67 -65.5t91 -24.5q69 0 116.5 46.5t47.5 116.5q0 75 -51 121.5t-125 46.5q-49 0 -82 -14v49l164 211h-271v90h422v-49z" />
    <glyph glyph-name="uni2084" unicode="&#x2084;" horiz-adv-x="614" 
d="M20 174v49l396 514h55v-473h123v-90h-123v-174h-96v174h-355zM168 264h207v268z" />
    <glyph glyph-name="uni2085" unicode="&#x2085;" horiz-adv-x="532" 
d="M236 492q107 0 181.5 -75.5t74.5 -180.5q0 -107 -72.5 -181.5t-183.5 -74.5q-69 0 -125.5 29t-90.5 79l72 55q53 -73 141 -73q71 0 116.5 48.5t45.5 117.5q0 70 -47 118.5t-119 48.5q-61 0 -112 -38l-56 8l39 364h351v-90h-265l-18 -162q35 7 68 7z" />
    <glyph glyph-name="uni2086" unicode="&#x2086;" horiz-adv-x="610" 
d="M137 233q0 -68 46.5 -115.5t117.5 -47.5q70 0 116 47.5t46 115.5q0 70 -46 118t-116 48q-64 0 -119 -39q-45 -67 -45 -127zM426 737l-168 -254q18 6 53 6q100 0 174 -75t74 -181t-73.5 -179.5t-184.5 -73.5q-112 0 -186 74t-74 179q0 57 24.5 111.5t69.5 122.5l182 270
h109z" />
    <glyph glyph-name="uni2087" unicode="&#x2087;" horiz-adv-x="522" 
d="M154 0h-103l318 647h-338v90h461v-49z" />
    <glyph glyph-name="uni2088" unicode="&#x2088;" horiz-adv-x="600" 
d="M299 367q-69 0 -115.5 -43.5t-46.5 -108.5q0 -61 46 -103t116 -42q71 0 116.5 42t45.5 103q0 65 -45.5 108.5t-116.5 43.5zM299 668q-46 0 -79.5 -31t-33.5 -76t33.5 -75.5t79.5 -30.5q50 0 82.5 30t32.5 76t-33 76.5t-82 30.5zM299 -20q-109 0 -183.5 69.5t-74.5 165.5
q0 64 33.5 118.5t87.5 84.5q-32 23 -52 62.5t-20 80.5q0 84 60.5 140.5t148.5 56.5q90 0 150.5 -56.5t60.5 -140.5q0 -41 -20 -80.5t-52 -62.5q54 -30 87.5 -84.5t33.5 -118.5q0 -96 -75.5 -165.5t-184.5 -69.5z" />
    <glyph glyph-name="uni2089" unicode="&#x2089;" horiz-adv-x="610" 
d="M463 504q0 69 -46.5 116.5t-117.5 47.5q-70 0 -116 -48t-46 -116q0 -70 46 -118t116 -48q64 0 119 39q45 67 45 127zM174 0l168 254q-18 -6 -53 -6q-100 0 -174 75t-74 181t73.5 180t184.5 74q112 0 186 -74.5t74 -179.5q0 -57 -24.5 -111.5t-69.5 -122.5l-182 -270h-109
z" />
    <glyph glyph-name="Euro" unicode="&#x20ac;" horiz-adv-x="1253" 
d="M10 821v111h166q53 234 210 378t384 144q279 0 434 -240l-100 -67q-126 190 -334 190q-179 0 -300 -110.5t-169 -294.5h569v-111h-587q-7 -61 -7 -104q0 -45 7 -103h587v-110h-567q47 -185 172.5 -296.5t302.5 -111.5q125 0 208 43.5t159 145.5l98 -68
q-163 -237 -461 -237q-231 0 -391.5 143.5t-214.5 380.5h-166v110h148q-4 66 -4 103q0 34 4 104h-148z" />
    <glyph glyph-name="trademark" unicode="&#x2122;" horiz-adv-x="1714" 
d="M143 1434h543v-91h-223v-694h-96v694h-224v91zM1475 1202l-273 -434h-57l-273 434v-553h-96v785h55l343 -541l342 541h55v-785h-96v553z" />
    <glyph glyph-name="Omega" unicode="&#x2126;" horiz-adv-x="1556" 
d="M778 1343q-163 0 -300 -79.5t-218.5 -221.5t-81.5 -315q0 -87 18.5 -170.5t48 -147t65 -120t71 -96t65 -68t48.5 -41.5l18 -14v-70h-451v111h238q-10 10 -26 28.5t-57 80.5t-72.5 129t-57 170.5t-25.5 207.5q0 148 54.5 281.5t148.5 231.5t228 156t286 58t286 -58
t228 -156t148.5 -231.5t54.5 -281.5q0 -104 -24.5 -206t-59.5 -173t-70 -126.5t-59 -83.5l-25 -27h238v-111h-451v70q7 5 19 14t46.5 41.5t66.5 68.5t70.5 94.5t66 121t46.5 146.5t19 171q0 173 -81.5 315t-218.5 221.5t-300 79.5z" />
    <glyph glyph-name="arrowleft" unicode="&#x2190;" horiz-adv-x="1488" 
d="M285 561h1081v-100h-1081l422 -420h-142l-442 440v60l442 440h142z" />
    <glyph glyph-name="arrowright" unicode="&#x2192;" horiz-adv-x="1488" 
d="M123 561h1081l-422 420h142l442 -440v-60l-442 -440h-142l422 420h-1081v100z" />
    <glyph glyph-name="uni2196" unicode="&#x2196;" horiz-adv-x="1179" 
d="M223 764v-600l-100 100v629l41 41h629l100 -98h-598l762 -766l-72 -70z" />
    <glyph glyph-name="uni2197" unicode="&#x2197;" horiz-adv-x="1179" 
d="M956 164v600l-761 -764l-72 70l762 766h-598l100 98h629l41 -41v-629z" />
    <glyph glyph-name="uni2198" unicode="&#x2198;" horiz-adv-x="1179" 
d="M956 170v600l101 -100v-629l-41 -41h-629l-100 98h598l-762 766l72 70z" />
    <glyph glyph-name="uni2199" unicode="&#x2199;" horiz-adv-x="1179" 
d="M223 770v-600l762 764l72 -70l-762 -766h598l-100 -98h-629l-41 41v629z" />
    <glyph glyph-name="partialdiff" unicode="&#x2202;" horiz-adv-x="1146" 
d="M717 934l-344 520h135l420 -631q127 -192 127 -358q0 -131 -61 -242t-172.5 -177t-248.5 -66q-206 0 -343.5 141t-137.5 346q0 206 138.5 346.5t351.5 140.5q63 0 135 -20zM831 756q-47 39 -113 63.5t-136 24.5q-164 0 -268.5 -107.5t-104.5 -269.5q0 -158 103.5 -267.5
t260.5 -109.5t261 109.5t104 267.5q0 83 -31.5 160.5t-75.5 128.5z" />
    <glyph glyph-name="Delta" unicode="&#x2206;" horiz-adv-x="1185" 
d="M631 1434l524 -1364v-70h-1124v70l524 1364h76zM592 1217l-428 -1106h858z" />
    <glyph glyph-name="product" unicode="&#x220f;" horiz-adv-x="1126" 
d="M764 0v1323h-402v-1323h-116v1323h-205v111h1044v-111h-204v-1323h-117z" />
    <glyph glyph-name="summation" unicode="&#x2211;" horiz-adv-x="1136" 
d="M918 1044v279h-687l551 -547v-69l-579 -596h735v278h117v-389h-1045v70l649 669l-628 625v70h1003v-390h-116z" />
    <glyph glyph-name="minus" unicode="&#x2212;" horiz-adv-x="1085" 
d="M973 469h-860v111h860v-111z" />
    <glyph glyph-name="uni2215" unicode="&#x2215;" horiz-adv-x="962" 
d="M117 0h-107l836 1434h106z" />
    <glyph glyph-name="uni2219" unicode="&#x2219;" horiz-adv-x="622" 
d="M205 467q0 44 31 75t75 31t75.5 -31t31.5 -75t-31.5 -75.5t-75.5 -31.5t-75 31.5t-31 75.5z" />
    <glyph glyph-name="radical" unicode="&#x221a;" horiz-adv-x="1142" 
d="M1006 1434h116l-499 -1434h-76l-328 823h-239v111h313l287 -719z" />
    <glyph glyph-name="infinity" unicode="&#x221e;" horiz-adv-x="1536" 
d="M1475 567q0 -162 -103.5 -272.5t-259.5 -110.5q-64 0 -117.5 20t-95 57.5t-71.5 79t-60 97.5q-31 -57 -61 -97.5t-71 -79t-94.5 -58t-117.5 -19.5q-156 0 -259.5 110.5t-103.5 272.5t103.5 272.5t259.5 110.5q64 0 117.5 -19.5t94.5 -58t71 -79.5t61 -99q30 57 60 99
t71.5 79.5t95 57.5t117.5 20q156 0 259.5 -110.5t103.5 -272.5zM424 295q41 0 77 15.5t62 38t53.5 62t45.5 72t43 84.5q-26 52 -43 84.5t-45 72.5t-54 62t-62 38t-77 16q-106 0 -176 -75.5t-70 -197.5t70.5 -197t175.5 -75zM1358 567q0 122 -70.5 197.5t-175.5 75.5
q-51 0 -93 -20.5t-76.5 -64t-57.5 -83.5t-54 -105q31 -65 54 -105t57.5 -83t76.5 -63.5t93 -20.5q105 0 175.5 75t70.5 197z" />
    <glyph glyph-name="integral" unicode="&#x222b;" horiz-adv-x="1046" 
d="M569 1065q-47 -241 -93.5 -608.5t-92.5 -601.5q-41 -208 -160 -299q-89 -68 -231 -68q-98 0 -176 35l41 106q58 -30 135 -30q121 0 186.5 66.5t93.5 211.5q47 241 94 608.5t93 601.5q41 208 159 299q89 68 232 68q98 0 176 -35l-41 -106q-58 30 -135 30
q-121 0 -187 -66.5t-94 -211.5z" />
    <glyph glyph-name="approxequal" unicode="&#x2248;" horiz-adv-x="1064" 
d="M178 223l-96 47q30 104 93.5 163t156.5 59q57 0 116 -28.5t101 -62t91.5 -62t88.5 -28.5q60 0 96 42t62 116l96 -47q-30 -104 -93.5 -162.5t-156.5 -58.5q-57 0 -116 28t-101 62t-91.5 62t-88.5 28q-60 0 -96 -42t-62 -116zM178 580l-96 47q30 104 93.5 162.5t156.5 58.5
q57 0 116 -28t101 -62t91.5 -62t88.5 -28q60 0 96.5 41.5t61.5 115.5l96 -47q-30 -104 -93.5 -162.5t-156.5 -58.5q-57 0 -116 28t-101 62t-91.5 62t-88.5 28q-60 0 -96.5 -41.5t-61.5 -115.5z" />
    <glyph glyph-name="notequal" unicode="&#x2260;" horiz-adv-x="1085" 
d="M866 975l-125 -215h232v-111h-295l-143 -250h438v-110h-502l-123 -215h-129l123 215h-229v110h293l143 250h-436v111h499l125 215h129z" />
    <glyph glyph-name="lessequal" unicode="&#x2264;" horiz-adv-x="1085" 
d="M973 53h-860v111h860v-111zM973 305v-119l-860 351v69l860 350v-118l-654 -267z" />
    <glyph glyph-name="greaterequal" unicode="&#x2265;" horiz-adv-x="1085" 
d="M973 53h-860v111h860v-111zM113 186v119l653 266l-653 267v118l860 -350v-69z" />
    <glyph glyph-name="lozenge" unicode="&#x25ca;" horiz-adv-x="1067" 
d="M571 0h-75l-435 682v70l435 682h75l435 -682v-70zM170 717l362 -572l365 572l-365 569z" />
    <glyph glyph-name="uniFB00" unicode="&#xfb00;" horiz-adv-x="1413" 
d="M1372 1464l-22 -108q-31 8 -70 8q-121 0 -182 -88q-22 -32 -32.5 -74.5t-10.5 -120.5v-147h317v-111h-317v-823h-117v823h-559v-823h-117v823h-242v111h242v141q0 191 78 285q95 115 266 115q37 0 90 -11l-22 -108q-31 8 -70 8q-121 0 -182 -88q-22 -32 -32.5 -74.5
t-10.5 -120.5v-147h559v141q0 191 78 285q95 115 266 115q37 0 90 -11z" />
    <glyph glyph-name="fi" unicode="&#xfb01;" horiz-adv-x="1181" 
d="M696 1464l-22 -108q-31 8 -70 8q-121 0 -182 -88q-22 -32 -32.5 -74.5t-10.5 -120.5v-147h629v-934h-117v823h-512v-823h-117v823h-242v111h242v141q0 191 78 285q95 115 266 115q37 0 90 -11zM846 1257q0 43 30 74t72 31q43 0 74 -31t31 -74q0 -42 -31 -72t-74 -30
t-72.5 29.5t-29.5 72.5z" />
    <glyph glyph-name="fl" unicode="&#xfb02;" horiz-adv-x="1181" 
d="M891 0v823h-512v-823h-117v823h-242v111h242v141q0 191 78 285q95 115 266 115q37 0 90 -11l-22 -108q-31 8 -70 8q-121 0 -182 -88q-22 -32 -32.5 -74.5t-10.5 -120.5v-147h512v520h117v-1454h-117z" />
    <glyph glyph-name="uniFB03" unicode="&#xfb03;" horiz-adv-x="1837" 
d="M1546 823h-512v-823h-116v823h-539v-823h-117v823h-242v111h242v141q0 191 78 285q95 115 266 115q37 0 90 -11l-22 -108q-31 8 -70 8q-121 0 -182 -88q-22 -32 -32.5 -74.5t-10.5 -120.5v-147h539v141q0 192 77 285q47 56 116.5 85.5t150.5 29.5q37 0 90 -11l-23 -108
q-31 8 -69 8q-122 0 -183 -88q-22 -32 -32.5 -74.5t-10.5 -120.5v-147h629v-934h-117v823zM1501 1257q0 43 30 74t73 31t73.5 -31t30.5 -74t-30.5 -72.5t-73.5 -29.5t-73 29.5t-30 72.5z" />
    <glyph glyph-name="uniFB04" unicode="&#xfb04;" horiz-adv-x="1837" 
d="M1546 823h-512v-823h-116v823h-539v-823h-117v823h-242v111h242v141q0 191 78 285q95 115 266 115q37 0 90 -11l-22 -108q-31 8 -70 8q-121 0 -182 -88q-22 -32 -32.5 -74.5t-10.5 -120.5v-147h539v141q0 192 77 285q47 56 116.5 85.5t150.5 29.5q37 0 90 -11l-23 -108
q-31 8 -69 8q-122 0 -183 -88q-22 -32 -32.5 -74.5t-10.5 -120.5v-147h512v520h117v-1454h-117v823z" />
    <glyph glyph-name="zero.numr" horiz-adv-x="655" 
d="M584 1065q0 -83 -14 -151.5t-43.5 -122.5t-80 -84.5t-118.5 -30.5t-118.5 30.5t-80 84.5t-43.5 122.5t-14 151.5t14 151.5t43.5 122.5t80 84.5t118.5 30.5t118.5 -30.5t80 -84.5t43.5 -122.5t14 -151.5zM168 1065q0 -131 38 -215t122 -84t121.5 84t37.5 215t-37.5 215
t-121.5 84t-122 -84t-38 -215z" />
    <glyph glyph-name="one.numr" horiz-adv-x="419" 
d="M211 1309l-150 -76v98l191 103h55v-738h-96v613z" />
    <glyph glyph-name="two.numr" horiz-adv-x="569" 
d="M143 1255l-84 35q16 49 42.5 83.5t58.5 51t60.5 23t58.5 6.5q93 0 157 -63.5t64 -153.5q0 -44 -17.5 -88t-37 -71.5t-54.5 -69.5l-180 -222h297v-90h-457v49l256 312q39 48 53.5 67t28.5 50.5t14 62.5q0 52 -35.5 89.5t-88.5 37.5q-95 0 -136 -109z" />
    <glyph glyph-name="three.numr" horiz-adv-x="577" 
d="M477 1384l-162 -204q73 -18 125 -70q76 -76 76 -180q0 -105 -74 -179.5t-186 -74.5q-73 0 -137.5 34.5t-98.5 90.5l78 55q22 -41 67 -65.5t91 -24.5q69 0 116.5 47t47.5 117q0 75 -51 121.5t-125 46.5q-47 0 -82 -15v50l164 210h-271v91h422v-50z" />
    <glyph glyph-name="four.numr" horiz-adv-x="614" 
d="M20 870v50l396 514h55v-473h123v-91h-123v-174h-96v174h-355zM168 961h207v268z" />
    <glyph glyph-name="five.numr" horiz-adv-x="532" 
d="M236 1188q107 0 181.5 -75.5t74.5 -180.5q0 -107 -72.5 -181.5t-183.5 -74.5q-69 0 -125.5 29t-90.5 79l72 56q54 -74 141 -74q71 0 116.5 48.5t45.5 117.5q0 70 -47 119t-119 49q-59 0 -112 -39l-56 8l39 365h351v-91h-265l-18 -161q30 6 68 6z" />
    <glyph glyph-name="six.numr" horiz-adv-x="610" 
d="M137 930q0 -69 46.5 -116.5t117.5 -47.5q70 0 116 48t46 116q0 70 -46 118t-116 48q-64 0 -119 -39q-45 -67 -45 -127zM426 1434l-168 -254q18 6 53 6q100 0 174 -75t74 -181t-73.5 -180t-184.5 -74q-112 0 -186 74.5t-74 179.5q0 57 24 110.5t70 122.5l182 271h109z" />
    <glyph glyph-name="seven.numr" horiz-adv-x="522" 
d="M154 696h-103l318 647h-338v91h461v-50z" />
    <glyph glyph-name="eight.numr" horiz-adv-x="600" 
d="M299 1063q-69 0 -115.5 -43.5t-46.5 -108.5q0 -61 46 -103t116 -42q71 0 116.5 42t45.5 103q0 65 -45.5 108.5t-116.5 43.5zM299 1364q-46 0 -79.5 -31t-33.5 -76t33.5 -75.5t79.5 -30.5q50 0 82.5 30t32.5 76t-33 76.5t-82 30.5zM299 676q-109 0 -183.5 69.5
t-74.5 165.5q0 64 33.5 118.5t87.5 84.5q-32 23 -52 62.5t-20 80.5q0 84 60.5 140.5t148.5 56.5q90 0 150.5 -56.5t60.5 -140.5q0 -41 -20 -80.5t-52 -62.5q54 -30 87.5 -84.5t33.5 -118.5q0 -96 -75.5 -165.5t-184.5 -69.5z" />
    <glyph glyph-name="nine.numr" horiz-adv-x="610" 
d="M463 1200q0 69 -46.5 116.5t-117.5 47.5q-70 0 -116 -48t-46 -116q0 -70 46 -118t116 -48q64 0 119 39q45 67 45 127zM174 696l168 254q-18 -6 -53 -6q-100 0 -174 75t-74 181t73.5 180t184.5 74q112 0 186 -74.5t74 -179.5q0 -57 -24 -110.5t-70 -122.5l-182 -271h-109z
" />
    <glyph glyph-name="zero.dnom" horiz-adv-x="634" 
d="M573 369q0 -83 -14 -151.5t-43.5 -122.5t-80 -84.5t-118.5 -30.5t-118.5 30.5t-80 84.5t-43.5 122.5t-14 151.5t14 151.5t43.5 122.5t80 84.5t118.5 30.5t118.5 -30.5t80 -84.5t43.5 -122.5t14 -151.5zM158 369q0 -131 37.5 -215t121.5 -84t122 84t38 215t-38 215
t-122 84t-121.5 -84t-37.5 -215z" />
    <glyph glyph-name="one.dnom" horiz-adv-x="419" 
d="M211 612l-150 -75v98l191 102h55v-737h-96v612z" />
    <glyph glyph-name="two.dnom" horiz-adv-x="569" 
d="M143 559l-84 35q16 49 42.5 83.5t58.5 51t60.5 23t58.5 6.5q93 0 157 -63.5t64 -153.5q0 -63 -28 -115t-81 -115l-180 -221h297v-90h-457v49l256 311q38 47 53 67t29 51.5t14 62.5q0 52 -35.5 89.5t-88.5 37.5q-95 0 -136 -109z" />
    <glyph glyph-name="three.dnom" horiz-adv-x="577" 
d="M477 688l-162 -205q74 -18 125 -69q76 -76 76 -181t-74 -179t-186 -74q-73 0 -137.5 34t-98.5 90l78 56q22 -41 67 -65.5t91 -24.5q69 0 116.5 46.5t47.5 116.5q0 75 -51 121.5t-125 46.5q-49 0 -82 -14v49l164 211h-271v90h422v-49z" />
    <glyph glyph-name="four.dnom" horiz-adv-x="614" 
d="M20 174v49l396 514h55v-473h123v-90h-123v-174h-96v174h-355zM168 264h207v268z" />
    <glyph glyph-name="five.dnom" horiz-adv-x="532" 
d="M236 492q107 0 181.5 -75.5t74.5 -180.5q0 -107 -72.5 -181.5t-183.5 -74.5q-69 0 -125.5 29t-90.5 79l72 55q53 -73 141 -73q71 0 116.5 48.5t45.5 117.5q0 70 -47 118.5t-119 48.5q-61 0 -112 -38l-56 8l39 364h351v-90h-265l-18 -162q35 7 68 7z" />
    <glyph glyph-name="six.dnom" horiz-adv-x="610" 
d="M137 233q0 -68 46.5 -115.5t117.5 -47.5q70 0 116 47.5t46 115.5q0 70 -46 118t-116 48q-64 0 -119 -39q-45 -67 -45 -127zM426 737l-168 -254q18 6 53 6q100 0 174 -75t74 -181t-73.5 -179.5t-184.5 -73.5q-112 0 -186 74t-74 179q0 57 24.5 111.5t69.5 122.5l182 270
h109z" />
    <glyph glyph-name="seven.dnom" horiz-adv-x="522" 
d="M154 0h-103l318 647h-338v90h461v-49z" />
    <glyph glyph-name="eight.dnom" horiz-adv-x="600" 
d="M299 367q-69 0 -115.5 -43.5t-46.5 -108.5q0 -61 46 -103t116 -42q71 0 116.5 42t45.5 103q0 65 -45.5 108.5t-116.5 43.5zM299 668q-46 0 -79.5 -31t-33.5 -76t33.5 -75.5t79.5 -30.5q50 0 82.5 30t32.5 76t-33 76.5t-82 30.5zM299 -20q-109 0 -183.5 69.5t-74.5 165.5
q0 64 33.5 118.5t87.5 84.5q-32 23 -52 62.5t-20 80.5q0 84 60.5 140.5t148.5 56.5q90 0 150.5 -56.5t60.5 -140.5q0 -41 -20 -80.5t-52 -62.5q54 -30 87.5 -84.5t33.5 -118.5q0 -96 -75.5 -165.5t-184.5 -69.5z" />
    <glyph glyph-name="nine.dnom" horiz-adv-x="610" 
d="M463 504q0 69 -46.5 116.5t-117.5 47.5q-70 0 -116 -48t-46 -116q0 -70 46 -118t116 -48q64 0 119 39q45 67 45 127zM174 0l168 254q-18 -6 -53 -6q-100 0 -174 75t-74 181t73.5 180t184.5 74q112 0 186 -74.5t74 -179.5q0 -57 -24.5 -111.5t-69.5 -122.5l-182 -270h-109
z" />
    <glyph glyph-name="quotedbl.tf" 
d="M348 913l-20 521h116l-20 -521h-76zM743 913l-20 521h117l-21 -521h-76z" />
    <glyph glyph-name="numbersign.tf" 
d="M1067 1434l-123 -451h203v-111h-232l-81 -311h202v-110h-233l-121 -451h-117l123 451h-348l-123 -451h-117l123 451h-203v110h232l82 311h-203v111h234l120 451h117l-121 -451h348l121 451h117zM451 872l-82 -311h348l82 311h-348z" />
    <glyph glyph-name="dollar.tf" 
d="M131 221l90 80q73 -95 164 -150t221 -55q114 0 204.5 75t90.5 194q0 62 -24.5 112.5t-62 82.5t-93.5 62.5t-108.5 51.5t-117.5 50.5t-110 57.5q-92 57 -143.5 126t-51.5 169q0 149 95 250.5t245 122.5v219h117v-217q173 -16 318 -141l-78 -90q-67 59 -133.5 87.5
t-151.5 28.5q-123 0 -206 -70t-83 -184q0 -52 23 -94.5t59 -70t89 -55t103 -47.5t112.5 -48.5t107.5 -56.5q217 -135 217 -346q0 -158 -107 -263.5t-270 -119.5v-218h-117v220q-242 28 -399 237z" />
    <glyph glyph-name="quotesingle.tf" 
d="M547 913l-21 521h117l-20 -521h-76z" />
    <glyph glyph-name="plus.tf" 
d="M1014 469h-375v-375h-111v375h-374v111h374v374h111v-374h375v-111z" />
    <glyph glyph-name="zero.tf" 
d="M225 717q0 -138 19 -247.5t60 -195t112 -132t168 -46.5t167.5 46.5t111.5 132t60 195t19 247.5t-19 247t-60 195t-111.5 132t-167.5 46t-168 -46.5t-112 -132t-60 -194.5t-19 -247zM102 717q0 130 16 239.5t52.5 202.5t91.5 157.5t137 101t185 36.5t185 -36.5t137 -100.5
t91 -157.5t52 -202.5t16 -240t-16 -240t-52 -202.5t-91 -157.5t-137 -100.5t-185 -36.5t-185 36.5t-137 101t-91.5 157.5t-52.5 202.5t-16 239.5z" />
    <glyph glyph-name="one.tf" 
d="M164 117h399v1155l-317 -180v122l358 220h82v-1317h348v-117h-870v117z" />
    <glyph glyph-name="two.tf" 
d="M264 1087l-110 39q32 142 139.5 235t259.5 93q179 0 294.5 -114.5t115.5 -288.5q0 -95 -39 -182t-129 -195l-461 -557h649v-117h-840v76l549 659q83 99 115.5 171.5t32.5 140.5q0 126 -80 208t-203 82q-113 0 -189.5 -67.5t-103.5 -182.5z" />
    <glyph glyph-name="three.tf" 
d="M102 205l99 63q51 -80 136 -126t195 -46q157 0 256 107t99 258q0 156 -109 260t-272 104q-86 0 -146 -20v76l379 436h-569v117h758v-76l-365 -422q127 -9 229.5 -74t160 -170.5t57.5 -230.5q0 -129 -59.5 -238.5t-170 -176t-248.5 -66.5q-140 0 -252.5 59.5t-177.5 165.5
z" />
    <glyph glyph-name="four.tf" 
d="M799 0v369h-727v75l768 990h82v-949h235v-116h-235v-369h-123zM254 485h545v703z" />
    <glyph glyph-name="five.tf" 
d="M299 1434h676v-117h-574l-59 -422q96 47 201 47q134 0 244.5 -64.5t173.5 -175t63 -241.5q0 -199 -138 -340t-339 -141q-124 0 -231.5 56.5t-172.5 153.5l97 66q51 -73 131 -116.5t174 -43.5q154 0 255 107t101 258q0 152 -105 258t-259 106q-142 0 -254 -100l-82 12z
" />
    <glyph glyph-name="six.tf" 
d="M793 1434l-344 -531q71 23 147 23q134 0 242 -64t167.5 -172t59.5 -237q0 -201 -136.5 -337t-340.5 -136q-133 1 -242.5 63.5t-171 168.5t-61.5 232q0 155 100 310l440 680h140zM588 809q-151 0 -264 -102q-27 -43 -42 -71t-30.5 -80t-15.5 -103q0 -151 101 -254
t255 -103q149 0 249.5 103t100.5 254q0 153 -100 254.5t-254 101.5z" />
    <glyph glyph-name="seven.tf" 
d="M164 1317v117h880v-76l-649 -1358h-129l631 1317h-733z" />
    <glyph glyph-name="eight.tf" 
d="M584 -20q-203 0 -337 123.5t-134 312.5q0 126 66.5 229.5t180.5 159.5q-73 48 -114 123.5t-41 165.5q0 151 108 255.5t271 104.5t271 -104.5t108 -255.5q0 -90 -41.5 -165.5t-114.5 -123.5q115 -56 181.5 -160t66.5 -229q0 -189 -134 -312.5t-337 -123.5zM584 1337
q-111 0 -183.5 -70t-72.5 -173q0 -101 71.5 -170t184.5 -72q113 3 184.5 72t71.5 170q0 103 -72.5 173t-183.5 70zM584 96q151 0 249.5 93t98.5 227t-98 226.5t-250 92.5t-250 -92.5t-98 -226.5t98.5 -227t249.5 -93z" />
    <glyph glyph-name="nine.tf" 
d="M375 0l344 530q-68 -22 -148 -22q-134 0 -242 64t-167.5 172t-59.5 237q0 201 137 337t341 136q133 -1 242.5 -64t171 -169t61.5 -232q0 -152 -101 -309l-440 -680h-139zM580 625q151 0 264 102q27 43 42 71t30.5 80t15.5 103q0 151 -101.5 253.5t-255.5 102.5
q-149 0 -249.5 -102.5t-100.5 -253.5q0 -153 100.5 -254.5t254.5 -101.5z" />
    <glyph glyph-name="less.tf" 
d="M1014 252v-119l-860 356v70l860 356v-118l-662 -273z" />
    <glyph glyph-name="equal.tf" 
d="M1014 649h-860v111h860v-111zM1014 289h-860v110h860v-110z" />
    <glyph glyph-name="greater.tf" 
d="M154 133v119l661 272l-661 273v118l860 -356v-70z" />
    <glyph glyph-name="asciicircum.tf" 
d="M182 717l363 717h76l362 -717h-121l-280 545l-279 -545h-121z" />
    <glyph glyph-name="asciitilde.tf" 
d="M229 401l-96 48q30 104 93.5 162.5t156.5 58.5q57 0 116 -28.5t101 -62t91.5 -62t88.5 -28.5q60 0 96 42t62 116l96 -47q-30 -104 -93.5 -162.5t-156.5 -58.5q-57 0 -116 28t-101 62t-91.5 62t-88.5 28q-60 0 -96 -42t-62 -116z" />
    <glyph glyph-name="cent.tf" 
d="M936 219l84 -78q-128 -143 -328 -159v-218h-117v222q-180 26 -302.5 156t-122.5 325q0 121 53 226t151 174t221 83v240h117v-240q169 -16 297 -141l-74 -84q-123 119 -282 119q-150 0 -258.5 -109.5t-108.5 -267.5t110 -267.5t273 -109.5q164 0 287 129z" />
    <glyph glyph-name="sterling.tf" 
d="M174 690v111h172q-26 60 -39 93t-26 85.5t-13 97.5q0 165 107 270t268 107q119 0 206 -57t134 -137l-94 -66q-88 149 -246 149q-43 0 -86.5 -16t-83 -46.5t-64 -84t-24.5 -119.5q0 -21 4 -45t8.5 -41t16 -48t17 -43.5t22 -50.5t20.5 -48h262v-111h-221q35 -107 35 -194
q0 -222 -152 -385h658v-111h-922v70q131 49 215 164t84 264q0 83 -41 192h-217z" />
    <glyph glyph-name="currency.tf" 
d="M182 719q0 130 84 242l-153 153l75 76l154 -154q112 84 242 84q131 0 243 -84l152 154l76 -76l-152 -153q82 -109 82 -242q0 -135 -82 -244l152 -151l-76 -76l-152 151q-109 -82 -243 -82q-133 0 -242 82l-154 -151l-75 76l153 151q-84 112 -84 244zM299 719
q0 -119 83.5 -202t201.5 -83t201 83t83 202t-83 202t-201 83t-201.5 -83t-83.5 -202z" />
    <glyph glyph-name="yen.tf" 
d="M1137 1434l-326 -502h223v-111h-295l-94 -147v-60h389v-110h-389v-504h-123v504h-389v110h389v60l-96 147h-293v111h221l-323 502h139l414 -641l413 641h140z" />
    <glyph glyph-name="section.tf" 
d="M1055 424q0 -95 -44.5 -173.5t-121.5 -133.5q90 -83 90 -223q0 -159 -119 -262t-289 -103q-200 0 -366 143l76 88q66 -58 133 -86t153 -28q122 0 205.5 68.5t83.5 179.5q0 46 -18.5 84.5t-44.5 63.5t-73 48.5t-84 37t-97 32.5q-52 16 -88 28.5t-84.5 33.5t-81 41.5
t-68 51.5t-56.5 65t-34.5 80t-13.5 99q0 186 166 305q-91 88 -91 226q0 159 119 261.5t289 102.5q201 0 367 -143l-76 -88q-66 58 -133.5 86t-153.5 28q-122 0 -205.5 -68t-83.5 -179q0 -46 18.5 -84.5t45 -64t73 -49t84 -37t97.5 -32.5q52 -16 88 -28.5t84.5 -33.5
t81 -41.5t68 -51.5t56.5 -65t34.5 -80t13.5 -99zM643 696q-15 5 -50.5 16.5t-55 18.5t-49 17.5t-54 21t-47.5 21.5q-67 -39 -110.5 -99t-43.5 -133q0 -44 16.5 -81.5t41.5 -64.5t65.5 -51.5t78 -40.5t89.5 -34q194 -67 254 -97q69 38 112.5 98.5t43.5 135.5q0 55 -23 99
t-67 76t-90.5 53.5t-110.5 43.5z" />
    <glyph glyph-name="logicalnot.tf" 
d="M903 289v360h-749v111h860v-471h-111z" />
    <glyph glyph-name="plusminus.tf" 
d="M1014 555h-375v-330h-111v330h-374v111h374v329h111v-329h375v-111zM1014 53h-860v111h860v-111z" />
    <glyph glyph-name="mu.tf" horiz-adv-x="1208" 
d="M594 -20q-186 0 -289 133v-605h-117v1426h117v-479q0 -163 53 -242q38 -57 99.5 -90t136.5 -33q95 0 180 53.5t131 141.5v649h117v-934h-113v127q-51 -66 -135.5 -106.5t-179.5 -40.5z" />
    <glyph glyph-name="multiply.tf" 
d="M893 137l-309 309l-310 -309l-77 78l309 309l-309 310l77 77l310 -309l309 309l78 -77l-309 -310l309 -309z" />
    <glyph glyph-name="divide.tf" 
d="M1014 469h-860v111h860v-111zM481 872q0 43 30 73t73 30t72.5 -30t29.5 -73t-29.5 -72.5t-72.5 -29.5t-73 29.5t-30 72.5zM481 176q0 43 30 73t73 30t72.5 -30t29.5 -73t-29.5 -72.5t-72.5 -29.5t-73 29.5t-30 72.5z" />
    <glyph glyph-name="florin.tf" 
d="M614 1065q-38 -203 -47 -264h322v-111h-338q-12 -82 -32 -247t-40.5 -302t-50.5 -286q-41 -208 -160 -299q-89 -68 -231 -68q-98 0 -176 35l41 106q58 -30 135 -30q121 0 186.5 66.5t93.5 211.5q28 147 48.5 280t41.5 298.5t31 234.5h-293v111h308q19 120 51 286
q41 208 160 299q89 68 231 68q98 0 176 -35l-41 -106q-58 30 -135 30q-121 0 -187 -66.5t-94 -211.5z" />
    <glyph glyph-name="pi.tf" 
d="M150 670l-99 59q73 118 191 168q88 37 217 37h657v-111h-205v-555q0 -71 17 -116t65 -80l-65 -92q-74 58 -103 118q-30 65 -30 189v536h-320v-823h-117v813q-129 -9 -208 -143z" />
    <glyph glyph-name="Euro.tf" 
d="M-20 821v111h165q53 234 210 378t384 144q280 0 435 -240l-101 -67q-126 190 -334 190q-179 0 -300 -110.5t-169 -294.5h570v-111h-588q-6 -53 -6 -104q0 -53 6 -103h588v-110h-568q47 -185 173 -296.5t303 -111.5q125 0 207.5 43.5t158.5 145.5l98 -68
q-163 -237 -460 -237q-231 0 -392 143.5t-215 380.5h-165v110h147q-4 66 -4 103q0 34 4 104h-147z" />
    <glyph glyph-name="partialdiff.tf" 
d="M727 934l-344 520h135l420 -631q127 -192 127 -358q0 -201 -137 -343t-344 -142q-206 0 -344 141t-138 346q0 206 138.5 346.5t351.5 140.5q63 0 135 -20zM842 756q-47 39 -113.5 63.5t-136.5 24.5q-164 0 -268.5 -107.5t-104.5 -269.5q0 -158 104 -267.5t261 -109.5
t260.5 109.5t103.5 267.5q0 83 -31 160.5t-75 128.5z" />
    <glyph glyph-name="Delta.tf" 
d="M621 1434l524 -1364v-70h-1125v70l525 1364h76zM582 1217l-428 -1106h858z" />
    <glyph glyph-name="product.tf" 
d="M784 0v1323h-401v-1323h-117v1323h-205v111h1045v-111h-205v-1323h-117z" />
    <glyph glyph-name="summation.tf" 
d="M969 1044v279h-686l551 -547v-69l-580 -596h735v278h117v-389h-1045v70l650 669l-629 625v70h1003v-390h-116z" />
    <glyph glyph-name="minus.tf" 
d="M1014 469h-860v111h860v-111z" />
    <glyph glyph-name="radical.tf" 
d="M1010 1434h116l-499 -1434h-76l-328 823h-239v111h313l287 -719z" />
    <glyph glyph-name="integral.tf" 
d="M614 1065q-47 -241 -93.5 -608.5t-92.5 -601.5q-41 -208 -160 -299q-89 -68 -231 -68q-98 0 -176 35l41 106q58 -30 135 -30q121 0 186.5 66.5t93.5 211.5q47 241 94 608.5t93 601.5q41 208 160 299q89 68 231 68q98 0 176 -35l-41 -106q-58 30 -135 30
q-121 0 -187 -66.5t-94 -211.5z" />
    <glyph glyph-name="approxequal.tf" 
d="M229 223l-96 47q30 104 93.5 163t156.5 59q57 0 116 -28.5t101 -62t91.5 -62t88.5 -28.5q60 0 96 42t62 116l96 -47q-30 -104 -93.5 -162.5t-156.5 -58.5q-57 0 -116 28t-101 62t-91.5 62t-88.5 28q-60 0 -96 -42t-62 -116zM229 580l-96 47q30 104 93.5 162.5t156.5 58.5
q57 0 116 -28t101 -62t91.5 -62t88.5 -28q60 0 96.5 41.5t61.5 115.5l96 -47q-30 -104 -93.5 -162.5t-156.5 -58.5q-57 0 -116 28t-101 62t-91.5 62t-88.5 28q-60 0 -96.5 -41.5t-61.5 -115.5z" />
    <glyph glyph-name="notequal.tf" 
d="M907 975l-125 -215h232v-111h-295l-144 -250h439v-110h-502l-123 -215h-129l123 215h-229v110h292l144 250h-436v111h499l125 215h129z" />
    <glyph glyph-name="lessequal.tf" 
d="M1014 53h-860v111h860v-111zM1014 305v-119l-860 351v69l860 350v-118l-654 -267z" />
    <glyph glyph-name="greaterequal.tf" 
d="M1014 53h-860v111h860v-111zM154 186v119l653 266l-653 267v118l860 -350v-69z" />
    <glyph glyph-name="lozenge.tf" 
d="M621 0h-76l-434 682v70l434 682h76l434 -682v-70zM219 717l363 -572l364 572l-364 569z" />
    <glyph glyph-name="parenleft.case" horiz-adv-x="870" 
d="M444 717q0 -242 73.5 -464.5t209.5 -410.5l-94 -67q-147 201 -226 441.5t-79 500.5t79 500.5t226 441.5l94 -68q-283 -391 -283 -874z" />
    <glyph glyph-name="parenright.case" horiz-adv-x="870" 
d="M426 717q0 483 -283 874l95 68q147 -201 226 -441.5t79 -500.5t-79 -500.5t-226 -441.5l-95 67q136 188 209.5 410.5t73.5 464.5z" />
    <glyph glyph-name="hyphen.case" horiz-adv-x="860" 
d="M164 844h532v-101h-532v101z" />
    <glyph glyph-name="at.case" horiz-adv-x="2048" 
d="M1278 557v320q-35 73 -106 121.5t-166 48.5q-134 0 -228 -94.5t-94 -235.5q0 -139 93.5 -234.5t228.5 -95.5q96 0 166 48.5t106 121.5zM1303 418q-46 -64 -122 -103t-175 -39q-158 0 -281 97q-75 60 -116.5 150t-41.5 194t41.5 194t116.5 150q121 96 281 96
q76 0 149.5 -30.5t122.5 -88.5v99h117v-562q0 -188 159 -188q114 0 174 104.5t60 272.5q0 170 -60 311t-163.5 235t-243 145.5t-297.5 51.5q-155 0 -296.5 -62.5t-244 -168.5t-163 -252t-60.5 -307q0 -163 62 -309.5t167 -252t249 -167.5t302 -62q247 0 453 158l63 -96
q-107 -83 -240 -127.5t-278 -44.5q-183 0 -348.5 71.5t-285.5 192t-190.5 287t-70.5 350.5t70.5 350.5t190.5 287t285.5 192t348.5 71.5q179 0 337.5 -62t275.5 -171.5t185.5 -270.5t68.5 -350q0 -134 -39.5 -243.5t-121 -177t-192.5 -67.5q-80 0 -148 35.5t-101 106.5z" />
    <glyph glyph-name="bracketleft.case" horiz-adv-x="870" 
d="M328 -205v1843h460v-110h-344v-1622h344v-111h-460z" />
    <glyph glyph-name="bracketright.case" horiz-adv-x="870" 
d="M543 1638v-1843h-461v111h344v1622h-344v110h461z" />
    <glyph glyph-name="braceleft.case" horiz-adv-x="870" 
d="M356 717q90 -37 90 -180q0 -80 -11 -219t-11 -203q0 -119 44 -164t165 -45h53v-111h-61q-173 0 -245.5 75.5t-72.5 231.5q0 80 10.5 226.5t10.5 216.5q0 74 -36 105.5t-108 31.5v70q72 0 108 31.5t36 105.5q0 70 -10.5 216t-10.5 226q0 156 72.5 231.5t245.5 75.5h61
v-110h-53q-121 0 -165 -45t-44 -164q0 -64 11 -203t11 -219q0 -143 -90 -180z" />
    <glyph glyph-name="bar.case" horiz-adv-x="362" 
d="M123 -205v1843h117v-1843h-117z" />
    <glyph glyph-name="braceright.case" horiz-adv-x="870" 
d="M514 717q-90 37 -90 180q0 80 11 219t11 203q0 119 -43.5 164t-164.5 45h-54v110h62q173 0 245 -75t72 -232q0 -80 -10 -226t-10 -216q0 -74 35.5 -105.5t107.5 -31.5v-70q-72 0 -107.5 -31.5t-35.5 -105.5q0 -70 10 -216.5t10 -226.5q0 -157 -72 -232t-245 -75h-62v111
h54q121 0 164.5 45t43.5 164q0 64 -11 203t-11 219q0 143 90 180z" />
    <glyph glyph-name="guillemotleft.case" horiz-adv-x="1095" 
d="M868 1061h146l-324 -379l324 -379h-146l-295 344v70zM459 1061h145l-323 -379l323 -379h-145l-295 344v70z" />
    <glyph glyph-name="periodcentered.case" horiz-adv-x="622" 
d="M205 717q0 44 31 75t75 31t75.5 -31t31.5 -75t-31.5 -75.5t-75.5 -31.5t-75 31.5t-31 75.5z" />
    <glyph glyph-name="guillemotright.case" horiz-adv-x="1095" 
d="M82 1061h145l295 -344v-70l-295 -344h-145l324 379zM492 1061h145l295 -344v-70l-295 -344h-145l323 379z" />
    <glyph glyph-name="endash.case" horiz-adv-x="921" 
d="M41 844h840v-101h-840v101z" />
    <glyph glyph-name="emdash.case" horiz-adv-x="1536" 
d="M41 844h1454v-101h-1454v101z" />
    <glyph glyph-name="bullet.case" horiz-adv-x="1064" 
d="M164 717q0 152 108 260t260 108t260.5 -108t108.5 -260t-108.5 -260.5t-260.5 -108.5t-260 108.5t-108 260.5z" />
    <glyph glyph-name="guilsinglleft.case" horiz-adv-x="686" 
d="M459 1061h145l-323 -379l323 -379h-145l-295 344v70z" />
    <glyph glyph-name="guilsinglright.case" horiz-adv-x="686" 
d="M82 1061h145l295 -344v-70l-295 -344h-145l324 379z" />
    <glyph glyph-name="zero.zero" horiz-adv-x="1208" 
d="M123 717q0 131 16 240t52 202.5t91 157.5t137 100.5t185 36.5t185 -36.5t137 -100.5t91 -157.5t52 -202.5t16 -240t-16 -240t-52 -202.5t-91 -157.5t-137 -100.5t-185 -36.5t-185 36.5t-137 100.5t-91 157.5t-52 202.5t-16 240zM963 717q0 248 -62 401l-530 -917
q88 -105 233 -105q97 0 168 46.5t112 132t60 195t19 247.5zM246 717q0 -255 59 -400l531 916q-87 104 -232 104q-97 0 -167.5 -46t-111.5 -132t-60 -195t-19 -247z" />
    <glyph glyph-name="uni2070.zero" horiz-adv-x="655" 
d="M584 1065q0 -83 -14 -151.5t-43.5 -122.5t-80 -84.5t-118.5 -30.5t-118.5 30.5t-80 84.5t-43.5 122.5t-14 151.5t14 151.5t43.5 122.5t80 84.5t118.5 30.5t118.5 -30.5t80 -84.5t43.5 -122.5t14 -151.5zM168 1065q0 -95 16 -158l238 414q-37 43 -94 43q-84 0 -122 -84
t-38 -215zM487 1065q0 87 -18 158l-236 -416q35 -41 95 -41q84 0 121.5 84t37.5 215z" />
    <glyph glyph-name="uni2080.zero" horiz-adv-x="655" 
d="M584 369q0 -83 -14 -151.5t-43.5 -122.5t-80 -84.5t-118.5 -30.5t-118.5 30.5t-80 84.5t-43.5 122.5t-14 151.5t14 151.5t43.5 122.5t80 84.5t118.5 30.5t118.5 -30.5t80 -84.5t43.5 -122.5t14 -151.5zM168 369q0 -95 16 -158l238 414q-37 43 -94 43q-84 0 -122 -84
t-38 -215zM487 369q0 87 -18 157l-236 -415q35 -41 95 -41q84 0 121.5 84t37.5 215z" />
    <glyph glyph-name="zero.numr.zero" horiz-adv-x="655" 
d="M584 1065q0 -83 -14 -151.5t-43.5 -122.5t-80 -84.5t-118.5 -30.5t-118.5 30.5t-80 84.5t-43.5 122.5t-14 151.5t14 151.5t43.5 122.5t80 84.5t118.5 30.5t118.5 -30.5t80 -84.5t43.5 -122.5t14 -151.5zM168 1065q0 -95 16 -158l238 414q-37 43 -94 43q-84 0 -122 -84
t-38 -215zM487 1065q0 87 -18 158l-236 -416q35 -41 95 -41q84 0 121.5 84t37.5 215z" />
    <glyph glyph-name="zero.dnom.zero" horiz-adv-x="655" 
d="M584 369q0 -83 -14 -151.5t-43.5 -122.5t-80 -84.5t-118.5 -30.5t-118.5 30.5t-80 84.5t-43.5 122.5t-14 151.5t14 151.5t43.5 122.5t80 84.5t118.5 30.5t118.5 -30.5t80 -84.5t43.5 -122.5t14 -151.5zM168 369q0 -95 16 -158l238 414q-37 43 -94 43q-84 0 -122 -84
t-38 -215zM487 369q0 87 -18 157l-236 -415q35 -41 95 -41q84 0 121.5 84t37.5 215z" />
    <glyph glyph-name="zero.tf.zero" 
d="M102 717q0 130 16 239.5t52.5 202.5t91.5 157.5t137 101t185 36.5t185 -36.5t137 -100.5t91 -157.5t52 -202.5t16 -240t-16 -240t-52 -202.5t-91 -157.5t-137 -100.5t-185 -36.5t-185 36.5t-137 101t-91.5 157.5t-52.5 202.5t-16 239.5zM942 717q0 251 -61 401l-531 -917
q88 -105 234 -105q97 0 167.5 46.5t111.5 132t60 195t19 247.5zM225 717q0 -252 60 -400l530 916q-87 104 -231 104q-97 0 -168 -46.5t-112 -132t-60 -194.5t-19 -247z" />
    <glyph glyph-name="a.ss01" horiz-adv-x="1044" 
d="M774 287v119q-106 79 -256 79q-121 0 -199.5 -54.5t-78.5 -149.5q0 -80 65 -135.5t164 -55.5q98 0 178.5 54.5t126.5 142.5zM465 -20q-150 0 -246 88.5t-96 212.5q0 77 34 139t89.5 99.5t121.5 57t136 19.5q64 0 127.5 -14.5t94 -27.5t48.5 -24v15q0 130 -51 196
q-77 103 -217 103q-146 0 -262 -99l-68 95q53 46 138.5 80t191.5 34q95 0 177 -37.5t134 -107.5q74 -99 74 -270v-539h-113v127q-51 -66 -134.5 -106.5t-178.5 -40.5z" />
    <glyph glyph-name="agrave.ss01" horiz-adv-x="1044" 
d="M326 1372h153l133 -287h-92zM774 287v119q-106 79 -256 79q-121 0 -199.5 -54.5t-78.5 -149.5q0 -80 65 -135.5t164 -55.5q98 0 178.5 54.5t126.5 142.5zM465 -20q-150 0 -246 88.5t-96 212.5q0 77 34 139t89.5 99.5t121.5 57t136 19.5q64 0 127.5 -14.5t94 -27.5
t48.5 -24v15q0 130 -51 196q-77 103 -217 103q-146 0 -262 -99l-68 95q53 46 138.5 80t191.5 34q95 0 177 -37.5t134 -107.5q74 -99 74 -270v-539h-113v127q-51 -66 -134.5 -106.5t-178.5 -40.5z" />
    <glyph glyph-name="aacute.ss01" horiz-adv-x="1044" 
d="M596 1372h154l-195 -287h-92zM774 287v119q-106 79 -256 79q-121 0 -199.5 -54.5t-78.5 -149.5q0 -80 65 -135.5t164 -55.5q98 0 178.5 54.5t126.5 142.5zM465 -20q-150 0 -246 88.5t-96 212.5q0 77 34 139t89.5 99.5t121.5 57t136 19.5q64 0 127.5 -14.5t94 -27.5
t48.5 -24v15q0 130 -51 196q-77 103 -217 103q-146 0 -262 -99l-68 95q53 46 138.5 80t191.5 34q95 0 177 -37.5t134 -107.5q74 -99 74 -270v-539h-113v127q-51 -66 -134.5 -106.5t-178.5 -40.5z" />
    <glyph glyph-name="acircumflex.ss01" horiz-adv-x="1044" 
d="M532 1278l-174 -193h-92l195 287h143l195 -287h-92zM774 287v119q-106 79 -256 79q-121 0 -199.5 -54.5t-78.5 -149.5q0 -80 65 -135.5t164 -55.5q98 0 178.5 54.5t126.5 142.5zM465 -20q-150 0 -246 88.5t-96 212.5q0 77 34 139t89.5 99.5t121.5 57t136 19.5
q64 0 127.5 -14.5t94 -27.5t48.5 -24v15q0 130 -51 196q-77 103 -217 103q-146 0 -262 -99l-68 95q53 46 138.5 80t191.5 34q95 0 177 -37.5t134 -107.5q74 -99 74 -270v-539h-113v127q-51 -66 -134.5 -106.5t-178.5 -40.5z" />
    <glyph glyph-name="atilde.ss01" horiz-adv-x="1044" 
d="M328 1139l-82 22q2 68 41.5 119t109.5 51q44 0 91 -23t89 -46t74 -23q68 0 74 92l82 -22q-2 -68 -42 -119t-110 -51q-44 0 -91 23t-89 46t-74 23q-67 0 -73 -92zM774 287v119q-106 79 -256 79q-121 0 -199.5 -54.5t-78.5 -149.5q0 -80 65 -135.5t164 -55.5
q98 0 178.5 54.5t126.5 142.5zM465 -20q-150 0 -246 88.5t-96 212.5q0 77 34 139t89.5 99.5t121.5 57t136 19.5q64 0 127.5 -14.5t94 -27.5t48.5 -24v15q0 130 -51 196q-77 103 -217 103q-146 0 -262 -99l-68 95q53 46 138.5 80t191.5 34q95 0 177 -37.5t134 -107.5
q74 -99 74 -270v-539h-113v127q-51 -66 -134.5 -106.5t-178.5 -40.5z" />
    <glyph glyph-name="adieresis.ss01" horiz-adv-x="1044" 
d="M590 1217q0 43 29.5 73.5t72.5 30.5t74 -30.5t31 -73.5t-31 -73t-74 -30t-72.5 30t-29.5 73zM256 1217q0 43 29.5 73.5t72.5 30.5t74 -30.5t31 -73.5t-31 -73t-74 -30t-72.5 30t-29.5 73zM774 287v119q-106 79 -256 79q-121 0 -199.5 -54.5t-78.5 -149.5q0 -80 65 -135.5
t164 -55.5q98 0 178.5 54.5t126.5 142.5zM465 -20q-150 0 -246 88.5t-96 212.5q0 77 34 139t89.5 99.5t121.5 57t136 19.5q64 0 127.5 -14.5t94 -27.5t48.5 -24v15q0 130 -51 196q-77 103 -217 103q-146 0 -262 -99l-68 95q53 46 138.5 80t191.5 34q95 0 177 -37.5
t134 -107.5q74 -99 74 -270v-539h-113v127q-51 -66 -134.5 -106.5t-178.5 -40.5z" />
    <glyph glyph-name="aring.ss01" horiz-adv-x="1044" 
d="M342 1249q0 77 54 131t130 54t130.5 -54t54.5 -131q0 -76 -54 -130t-131 -54q-76 0 -130 53.5t-54 130.5zM424 1249q0 -43 29.5 -72.5t72.5 -29.5t73 29.5t30 72.5t-30 73t-73 30t-72.5 -30t-29.5 -73zM774 287v119q-106 79 -256 79q-121 0 -199.5 -54.5t-78.5 -149.5
q0 -80 65 -135.5t164 -55.5q98 0 178.5 54.5t126.5 142.5zM465 -20q-150 0 -246 88.5t-96 212.5q0 77 34 139t89.5 99.5t121.5 57t136 19.5q64 0 127.5 -14.5t94 -27.5t48.5 -24v15q0 130 -51 196q-77 103 -217 103q-146 0 -262 -99l-68 95q53 46 138.5 80t191.5 34
q95 0 177 -37.5t134 -107.5q74 -99 74 -270v-539h-113v127q-51 -66 -134.5 -106.5t-178.5 -40.5z" />
    <glyph glyph-name="ae.ss01" horiz-adv-x="1746" 
d="M1542 229l82 -77q-58 -73 -157 -122.5t-224 -49.5q-217 0 -352 163v-143h-113v127q-51 -66 -134.5 -106.5t-178.5 -40.5q-150 0 -246 88.5t-96 212.5q0 77 34 139t89.5 99.5t121.5 57t136 19.5q64 0 127.5 -14.5t94 -27.5t48.5 -24v15q0 130 -51 196q-77 103 -217 103
q-146 0 -262 -99l-68 95q53 46 138.5 80t191.5 34q95 0 177 -37.5t134 -107.5q19 -27 35 -64q58 97 154 153t215 56q187 0 310.5 -130.5t123.5 -325.5q0 -23 -2 -41h-762q6 -156 101 -261.5t251 -105.5q185 0 299 139zM774 287v119q-106 79 -256 79q-121 0 -199.5 -54.5
t-78.5 -149.5q0 -80 65 -135.5t164 -55.5q98 0 178.5 54.5t126.5 142.5zM1221 844q-122 0 -209.5 -78.5t-114.5 -202.5h637q-19 124 -105.5 202.5t-207.5 78.5z" />
    <glyph glyph-name="f.ss02" horiz-adv-x="778" 
d="M778 1438l-49 -105q-71 31 -123 31q-118 0 -182 -92q-23 -33 -34 -73.5t-11 -117.5v-147h389v-111h-389v-823h-117v823h-242v111h242v141q0 185 80 281q47 57 116.5 88t149.5 31q95 0 170 -37z" />
    <glyph glyph-name="j.ss02" horiz-adv-x="552" 
d="M-123 -475l47 102q61 -28 117 -28t104.5 23t77.5 65q21 31 30 72.5t9 121.5v1053h117v-1053q0 -105 -18 -168.5t-56 -109.5q-44 -54 -112.5 -84.5t-145.5 -30.5q-103 0 -170 37zM217 1257q0 43 30 74t72 31q43 0 74 -31t31 -74q0 -42 -31 -72t-74 -30t-72.5 29.5
t-29.5 72.5z" />
    <glyph glyph-name="r.ss02" horiz-adv-x="735" 
d="M684 944l-20 -108q-32 8 -76 8q-95 0 -177.5 -58t-119.5 -149v-637h-117v934h117v-119q36 57 116 98t189 41q50 0 88 -10z" />
    <glyph glyph-name="t.ss02" horiz-adv-x="839" 
d="M745 123l43 -103q-82 -40 -196 -40q-161 0 -252 104q-78 88 -78 248v491h-262v111h262v254h117v-254h409v-111h-409v-493q0 -113 49 -172q59 -68 170 -68q76 0 147 33z" />
    <glyph glyph-name="uniFB00.ss02" horiz-adv-x="1505" 
d="M1505 1438l-49 -105q-71 31 -123 31q-118 0 -182 -92q-23 -33 -34 -73.5t-11 -117.5v-147h385v-111h-385v-823h-117v823h-610v-823h-117v823h-242v111h242v141q0 185 80 281q47 57 116.5 88t149.5 31q95 0 170 -37l-49 -105q-71 31 -123 31q-118 0 -182 -92
q-23 -33 -34 -73.5t-11 -117.5v-147h610v141q0 185 80 281q47 57 116.5 88t149.5 31q95 0 170 -37z" />
    <glyph glyph-name="fi.ss02" horiz-adv-x="1226" 
d="M379 934h674v-934h-117v823h-557v-823h-117v823h-242v111h242v143q0 183 80 279q47 57 116.5 88t149.5 31q95 0 170 -37l-49 -105q-74 31 -123 31q-118 0 -182 -92q-23 -34 -34 -73t-11 -116v-149zM891 1257q0 43 30 74t72 31q43 0 74 -31t31 -74q0 -42 -31 -72t-74 -30
t-72.5 29.5t-29.5 72.5z" />
    <glyph glyph-name="fl.ss02" horiz-adv-x="1226" 
d="M379 934h557v520h117v-1454h-117v823h-557v-823h-117v823h-242v111h242v141q0 185 80 281q47 57 116.5 88t149.5 31q95 0 170 -37l-49 -105q-74 31 -123 31q-118 0 -182 -92q-23 -33 -34 -73.5t-11 -117.5v-147z" />
    <glyph glyph-name="uniFB03.ss02" horiz-adv-x="1953" 
d="M1780 934v-934h-117v823h-557v-823h-117v823h-610v-823h-117v823h-242v111h242v141q0 185 80 281q47 57 116.5 88t149.5 31q95 0 170 -37l-49 -105q-71 31 -123 31q-118 0 -182 -92q-23 -33 -34 -73.5t-11 -117.5v-147h610v141q0 185 80 281q47 57 116.5 88t149.5 31
q95 0 170 -37l-49 -105q-71 31 -123 31q-118 0 -182 -92q-23 -33 -34 -73.5t-11 -117.5v-147h674zM1618 1257q0 43 30 74t72 31q43 0 74 -31t31 -74q0 -42 -31 -72t-74 -30t-72.5 29.5t-29.5 72.5z" />
    <glyph glyph-name="uniFB04.ss02" horiz-adv-x="1953" 
d="M1663 0v823h-557v-823h-117v823h-610v-823h-117v823h-242v111h242v141q0 185 80 281q47 57 116.5 88t149.5 31q95 0 170 -37l-49 -105q-71 31 -123 31q-118 0 -182 -92q-23 -33 -34 -73.5t-11 -117.5v-147h610v141q0 185 80 281q47 57 116.5 88t149.5 31q95 0 170 -37
l-49 -105q-71 31 -123 31q-118 0 -182 -92q-23 -33 -34 -73.5t-11 -117.5v-147h557v520h117v-1454h-117z" />
    <glyph glyph-name="parenleft.ss03" horiz-adv-x="870" 
d="M444 717q0 -357 170 -686l-106 -51q-180 346 -180 737t180 737l106 -51q-170 -329 -170 -686z" />
    <glyph glyph-name="parenright.ss03" horiz-adv-x="870" 
d="M426 717q0 357 -170 686l106 51q181 -348 181 -737t-181 -737l-106 51q170 329 170 686z" />
    <glyph glyph-name="bracketleft.ss03" horiz-adv-x="870" 
d="M328 0v1434h460v-111h-344v-1212h344v-111h-460z" />
    <glyph glyph-name="bracketright.ss03" horiz-adv-x="870" 
d="M543 1434v-1434h-461v111h344v1212h-344v111h461z" />
    <glyph glyph-name="braceleft.ss03" horiz-adv-x="870" 
d="M356 717q90 -37 90 -164q0 -47 -7 -129t-7 -121q0 -108 46.5 -150t164.5 -42h43v-111h-51q-322 0 -322 274q0 42 7.5 123t7.5 121q0 164 -144 164v70q144 0 144 163q0 39 -7.5 120t-7.5 124q0 275 322 275h51v-111h-43q-118 0 -164.5 -42.5t-46.5 -150.5q0 -38 7 -120
t7 -129q0 -127 -90 -164z" />
    <glyph glyph-name="bar.ss03" horiz-adv-x="362" 
d="M123 0v1434h117v-1434h-117z" />
    <glyph glyph-name="braceright.ss03" horiz-adv-x="870" 
d="M514 717q-90 37 -90 164q0 47 7 129t7 120q0 108 -46.5 150.5t-164.5 42.5h-43v111h52q321 0 321 -275q0 -43 -7 -124t-7 -120q0 -163 143 -163v-70q-143 0 -143 -164q0 -40 7 -121t7 -123q0 -274 -321 -274h-52v111h43q118 0 164.5 42t46.5 150q0 39 -7 121t-7 129
q0 127 90 164z" />
    <glyph glyph-name="endash.ss04" horiz-adv-x="2150" 
d="M41 561h2068v-100h-2068v100z" />
    <glyph glyph-name="emdash.ss04" horiz-adv-x="2764" 
d="M41 561h2683v-100h-2683v100z" />
    <glyph glyph-name="endash.case.ss04" horiz-adv-x="2150" 
d="M41 844h2068v-101h-2068v101z" />
    <glyph glyph-name="emdash.case.ss04" horiz-adv-x="2764" 
d="M41 844h2683v-101h-2683v101z" />
    <glyph glyph-name="asterisk.ss05" horiz-adv-x="1011" 
d="M455 614v322l-279 -162l-49 88l281 162l-281 162l49 88l279 -162v322h102v-322l279 162l49 -88l-281 -162l281 -162l-49 -88l-279 162v-322h-102z" />
    <glyph glyph-name="asterisk.ss06" horiz-adv-x="1011" 
d="M584 1067l344 -109l-33 -96l-340 111v-359h-102v359l-340 -111l-31 96l338 113l-209 287l82 59l211 -289l209 289l82 -59z" />
    <glyph glyph-name="asterisk.ss07" horiz-adv-x="1011" 
d="M915 973h-321l162 -279l-88 -49l-162 281l-162 -281l-88 49l162 279h-322v102h322l-162 279l88 49l162 -281l162 281l88 -49l-162 -279h321v-102z" />
    <glyph glyph-name="asterisk.ss08" horiz-adv-x="1011" 
d="M96 973v102h320v-102h-320zM915 973h-319v102h319v-102zM256 1354l88 49l160 -279l-88 -47zM344 645l-88 49l160 277l88 -47zM668 645l-162 279l88 47l162 -277zM756 1354l-162 -277l-88 47l162 279z" />
    <glyph glyph-name="asterisk.ss09" horiz-adv-x="1011" 
d="M96 973v102h357v-102h-357zM557 614h-102v357h102v-357zM915 973h-356v102h356v-102zM557 1434v-357h-102v357h102zM770 688l-192 191l73 73l193 -192zM242 1360l192 -191l-74 -73l-192 192zM578 1169l192 191l74 -72l-193 -192zM434 879l-192 -191l-74 72l192 192z" />
    <glyph glyph-name="f_f_i.ss02" horiz-adv-x="1953" 
d="M1780 934v-934h-117v823h-557v-823h-117v823h-610v-823h-117v823h-242v111h242v141q0 185 80 281q47 57 116.5 88t149.5 31q95 0 170 -37l-49 -105q-71 31 -123 31q-118 0 -182 -92q-23 -33 -34 -73.5t-11 -117.5v-147h610v141q0 185 80 281q47 57 116.5 88t149.5 31
q95 0 170 -37l-49 -105q-71 31 -123 31q-118 0 -182 -92q-23 -33 -34 -73.5t-11 -117.5v-147h674zM1618 1257q0 43 30 74t72 31q43 0 74 -31t31 -74q0 -42 -31 -72t-74 -30t-72.5 29.5t-29.5 72.5z" />
    <glyph glyph-name="f_f.ss02" horiz-adv-x="1505" 
d="M1505 1438l-49 -105q-71 31 -123 31q-118 0 -182 -92q-23 -33 -34 -73.5t-11 -117.5v-147h385v-111h-385v-823h-117v823h-610v-823h-117v823h-242v111h242v141q0 185 80 281q47 57 116.5 88t149.5 31q95 0 170 -37l-49 -105q-71 31 -123 31q-118 0 -182 -92
q-23 -33 -34 -73.5t-11 -117.5v-147h610v141q0 185 80 281q47 57 116.5 88t149.5 31q95 0 170 -37z" />
    <glyph glyph-name="f_l.ss02" horiz-adv-x="1226" 
d="M379 934h557v520h117v-1454h-117v823h-557v-823h-117v823h-242v111h242v141q0 185 80 281q47 57 116.5 88t149.5 31q95 0 170 -37l-49 -105q-74 31 -123 31q-118 0 -182 -92q-23 -33 -34 -73.5t-11 -117.5v-147z" />
    <glyph glyph-name="f_i.ss02" horiz-adv-x="1226" 
d="M379 934h674v-934h-117v823h-557v-823h-117v823h-242v111h242v143q0 183 80 279q47 57 116.5 88t149.5 31q95 0 170 -37l-49 -105q-74 31 -123 31q-118 0 -182 -92q-23 -34 -34 -73t-11 -116v-149zM891 1257q0 43 30 74t72 31q43 0 74 -31t31 -74q0 -42 -31 -72t-74 -30
t-72.5 29.5t-29.5 72.5z" />
    <glyph glyph-name="f_f_l.ss02" horiz-adv-x="1953" 
d="M1663 0v823h-557v-823h-117v823h-610v-823h-117v823h-242v111h242v141q0 185 80 281q47 57 116.5 88t149.5 31q95 0 170 -37l-49 -105q-71 31 -123 31q-118 0 -182 -92q-23 -33 -34 -73.5t-11 -117.5v-147h610v141q0 185 80 281q47 57 116.5 88t149.5 31q95 0 170 -37
l-49 -105q-71 31 -123 31q-118 0 -182 -92q-23 -33 -34 -73.5t-11 -117.5v-147h557v520h117v-1454h-117z" />
    <glyph glyph-name="uni00AD.case" horiz-adv-x="860" 
d="M164 766h532v-100h-532v100z" />
    <glyph glyph-name="space.frac" horiz-adv-x="110" 
 />
    <glyph glyph-name="uni2007.tf" 
 />
    </font>
</defs>
</svg>
